<?xml version="1.0" encoding="UTF-8" standalone="no"?>
<svg
   xmlns:dc="http://purl.org/dc/elements/1.1/"
   xmlns:cc="http://creativecommons.org/ns#"
   xmlns:rdf="http://www.w3.org/1999/02/22-rdf-syntax-ns#"
   xmlns:svg="http://www.w3.org/2000/svg"
   xmlns="http://www.w3.org/2000/svg"
   xmlns:xlink="http://www.w3.org/1999/xlink"
   width="600"
   height="300"
   viewBox="0 0 600.00001 300"
   id="svg2"
   version="1.1">
  <defs
     id="defs4">
    <linearGradient
       id="linearGradient8563">
      <stop
         style="stop-color:#a02f2f;stop-opacity:1;"
         offset="0"
         id="stop8565" />
      <stop
         id="stop8571"
         offset="0.7240802"
         style="stop-color:#c84444;stop-opacity:1" />
      <stop
         style="stop-color:#a02f2f;stop-opacity:1"
         offset="1"
         id="stop8567" />
    </linearGradient>
    <radialGradient
       xlink:href="#linearGradient8563"
       id="radialGradient8569"
       cx="300"
       cy="149.47917"
       fx="300"
       fy="149.47917"
       r="311.45834"
       gradientTransform="matrix(1,0,0,0.90802673,0,13.748086)"
       gradientUnits="userSpaceOnUse" />
    <filter
       style="color-interpolation-filters:sRGB"
       id="filter8691"
       x="-0.06"
       width="1.12"
       y="-0.06"
       height="1.12">
      <feGaussianBlur
         stdDeviation="8.0729164"
         id="feGaussianBlur8693" />
    </filter>
    <filter
       id="filter8504"
       style="color-interpolation-filters:sRGB;">
      <feFlood
         id="feFlood8506"
         result="flood"
         flood-color="rgb(0,0,0)"
         flood-opacity="0.266667" />
      <feComposite
         id="feComposite8508"
         result="composite1"
         operator="in"
         in2="SourceGraphic"
         in="flood" />
      <feGaussianBlur
         id="feGaussianBlur8510"
         result="blur"
         stdDeviation="2"
         in="composite1" />
      <feOffset
         id="feOffset8512"
         result="offset"
         dy="8"
         dx="0" />
      <feComposite
         id="feComposite8514"
         result="composite2"
         operator="over"
         in2="offset"
         in="SourceGraphic" />
    </filter>
    <filter
       height="1.0590349"
       y="-0.029517438"
       width="3.3698286"
       x="-1.1849143"
       id="filter8920"
       style="color-interpolation-filters:sRGB">
      <feGaussianBlur
         id="feGaussianBlur8922"
         stdDeviation="2.5455844" />
    </filter>
    <filter
       id="filter8504-7"
       style="color-interpolation-filters:sRGB">
      <feFlood
         id="feFlood8506-6"
         result="flood"
         flood-color="rgb(0,0,0)"
         flood-opacity="0.266667" />
      <feComposite
         id="feComposite8508-6"
         result="composite1"
         operator="in"
         in2="SourceGraphic"
         in="flood" />
      <feGaussianBlur
         id="feGaussianBlur8510-9"
         result="blur"
         stdDeviation="2"
         in="composite1" />
      <feOffset
         id="feOffset8512-2"
         result="offset"
         dy="8"
         dx="0" />
      <feComposite
         id="feComposite8514-1"
         result="composite2"
         operator="over"
         in2="offset"
         in="SourceGraphic" />
    </filter>
    <filter
       id="filter8981"
       style="color-interpolation-filters:sRGB;">
      <feTurbulence
         id="feTurbulence8983"
         type="fractalNoise"
         numOctaves="10"
         baseFrequency="0.12 0.02"
         seed="10" />
      <feColorMatrix
         id="feColorMatrix8985"
         result="result5"
         values="1 0 0 0 0 0 1 0 0 0 0 0 1 0 0 0 0 0 0.7 0 " />
      <feComposite
         id="feComposite8987"
         in="SourceGraphic"
         operator="out"
         in2="result5" />
      <feMorphology
         id="feMorphology8989"
         operator="dilate"
         radius="1.3"
         result="result3" />
      <feTurbulence
         id="feTurbulence8991"
         result="result91"
         numOctaves="8"
         baseFrequency="0.08 0.05"
         type="turbulence"
         seed="25" />
      <feDisplacementMap
         id="feDisplacementMap8993"
         in2="result91"
         in="result3"
         xChannelSelector="R"
         yChannelSelector="G"
         scale="5"
         result="result4" />
      <feSpecularLighting
         id="feSpecularLighting8995"
         in="result4"
         result="result1"
         lighting-color="rgb(255,255,255)"
         surfaceScale="2"
         specularConstant="1"
         specularExponent="35">
        <feDistantLight
           id="feDistantLight8997"
           elevation="75"
           azimuth="235" />
      </feSpecularLighting>
      <feComposite
         id="feComposite8999"
         in2="result4"
         in="result1"
         result="result2"
         operator="in" />
      <feComposite
         id="feComposite9001"
         in2="result2"
         in="result4"
         result="result4"
         operator="arithmetic"
         k2="1"
         k3="1" />
      <feBlend
         id="feBlend9003"
         in2="result4"
         mode="multiply" />
    </filter>
    <filter
       id="filter8384"
       style="color-interpolation-filters:sRGB;">
      <feFlood
         id="feFlood8386"
         result="flood"
         flood-color="rgb(0,0,0)"
         flood-opacity="0.203922" />
      <feComposite
         id="feComposite8388"
         result="composite1"
         operator="in"
         in2="SourceGraphic"
         in="flood" />
      <feGaussianBlur
         id="feGaussianBlur8390"
         result="blur"
         stdDeviation="1"
         in="composite1" />
      <feOffset
         id="feOffset8392"
         result="offset"
         dy="5"
         dx="0" />
      <feComposite
         id="feComposite8394"
         result="composite2"
         operator="over"
         in2="offset"
         in="SourceGraphic" />
    </filter>
    <filter
       id="filter8396"
       style="color-interpolation-filters:sRGB;">
      <feFlood
         id="feFlood8398"
         result="flood"
         flood-color="rgb(0,0,0)"
         flood-opacity="0.203922" />
      <feComposite
         id="feComposite8400"
         result="composite1"
         operator="in"
         in2="SourceGraphic"
         in="flood" />
      <feGaussianBlur
         id="feGaussianBlur8402"
         result="blur"
         stdDeviation="1"
         in="composite1" />
      <feOffset
         id="feOffset8404"
         result="offset"
         dy="5"
         dx="0" />
      <feComposite
         id="feComposite8406"
         result="composite2"
         operator="over"
         in2="offset"
         in="SourceGraphic" />
    </filter>
    <filter
       id="filter8408"
       style="color-interpolation-filters:sRGB;">
      <feFlood
         id="feFlood8410"
         result="flood"
         flood-color="rgb(0,0,0)"
         flood-opacity="0.203922" />
      <feComposite
         id="feComposite8412"
         result="composite1"
         operator="in"
         in2="SourceGraphic"
         in="flood" />
      <feGaussianBlur
         id="feGaussianBlur8414"
         result="blur"
         stdDeviation="1"
         in="composite1" />
      <feOffset
         id="feOffset8416"
         result="offset"
         dy="5"
         dx="0" />
      <feComposite
         id="feComposite8418"
         result="composite2"
         operator="over"
         in2="offset"
         in="SourceGraphic" />
    </filter>
    <filter
       id="filter8420"
       style="color-interpolation-filters:sRGB;">
      <feFlood
         id="feFlood8422"
         result="flood"
         flood-color="rgb(0,0,0)"
         flood-opacity="0.203922" />
      <feComposite
         id="feComposite8424"
         result="composite1"
         operator="in"
         in2="SourceGraphic"
         in="flood" />
      <feGaussianBlur
         id="feGaussianBlur8426"
         result="blur"
         stdDeviation="1"
         in="composite1" />
      <feOffset
         id="feOffset8428"
         result="offset"
         dy="5"
         dx="0" />
      <feComposite
         id="feComposite8430"
         result="composite2"
         operator="over"
         in2="offset"
         in="SourceGraphic" />
    </filter>
    <filter
       id="filter8432"
       style="color-interpolation-filters:sRGB;">
      <feFlood
         id="feFlood8434"
         result="flood"
         flood-color="rgb(0,0,0)"
         flood-opacity="0.203922" />
      <feComposite
         id="feComposite8436"
         result="composite1"
         operator="in"
         in2="SourceGraphic"
         in="flood" />
      <feGaussianBlur
         id="feGaussianBlur8438"
         result="blur"
         stdDeviation="1"
         in="composite1" />
      <feOffset
         id="feOffset8440"
         result="offset"
         dy="5"
         dx="0" />
      <feComposite
         id="feComposite8442"
         result="composite2"
         operator="over"
         in2="offset"
         in="SourceGraphic" />
    </filter>
    <filter
       id="filter8444"
       style="color-interpolation-filters:sRGB;">
      <feFlood
         id="feFlood8446"
         result="flood"
         flood-color="rgb(0,0,0)"
         flood-opacity="0.203922" />
      <feComposite
         id="feComposite8448"
         result="composite1"
         operator="in"
         in2="SourceGraphic"
         in="flood" />
      <feGaussianBlur
         id="feGaussianBlur8450"
         result="blur"
         stdDeviation="1"
         in="composite1" />
      <feOffset
         id="feOffset8452"
         result="offset"
         dy="5"
         dx="0" />
      <feComposite
         id="feComposite8454"
         result="composite2"
         operator="over"
         in2="offset"
         in="SourceGraphic" />
    </filter>
  </defs>
  <metadata
     id="metadata7">
    <rdf:RDF>
      <cc:Work
         rdf:about="">
        <dc:format>image/svg+xml</dc:format>
        <dc:type
           rdf:resource="http://purl.org/dc/dcmitype/StillImage" />
        <dc:title></dc:title>
      </cc:Work>
    </rdf:RDF>
  </metadata>
  <rect
     style="opacity:1;fill:url(#radialGradient8569);fill-opacity:1;stroke:none;stroke-width:20;stroke-linecap:round;stroke-linejoin:round;stroke-miterlimit:4;stroke-dasharray:none;stroke-dashoffset:0;stroke-opacity:1"
     id="rect8305"
     width="622.91669"
     height="321.875"
     x="-11.458333"
     y="-11.458334" />
  <circle
     style="opacity:1;fill:#000000;fill-opacity:1;stroke:#fff8e0;stroke-width:2.05141521;stroke-linecap:round;stroke-linejoin:round;stroke-miterlimit:4;stroke-dasharray:none;stroke-dashoffset:0;stroke-opacity:1"
     id="circle8294"
     cx="300"
     cy="150"
     r="234.08121" />
  <circle
     r="228.21436"
     cy="150"
     cx="300"
     id="path8277-4"
     style="opacity:1;fill:#000000;fill-opacity:1;stroke:#fff8e0;stroke-width:2;stroke-linecap:round;stroke-linejoin:round;stroke-miterlimit:4;stroke-dasharray:none;stroke-dashoffset:0;stroke-opacity:1" />
  <circle
     r="210.56677"
     cy="150"
     cx="300"
     id="path8277"
     style="opacity:1;fill:#000000;fill-opacity:1;stroke:#fff8e0;stroke-width:2;stroke-linecap:round;stroke-linejoin:round;stroke-miterlimit:4;stroke-dasharray:none;stroke-dashoffset:0;stroke-opacity:1" />
  <circle
     r="196.875"
     cy="150"
     cx="300"
     id="path8275"
     style="opacity:1;fill:#1a1007;fill-opacity:1;stroke:#b03737;stroke-width:12;stroke-linecap:round;stroke-linejoin:round;stroke-miterlimit:4;stroke-dasharray:none;stroke-dashoffset:0;stroke-opacity:1" />
  <g
     id="g8431"
     transform="matrix(0.86133065,-0.11607489,0.11607489,0.86133065,219.76139,334.46296)"
     style="opacity:0.1">
    <path
       id="path8345"
       d="M 235.41666,-194.27083 A 120.3125,44.270832 0 0 1 115.10416,-150 120.3125,44.270832 0 0 1 -5.2083435,-194.27083 120.3125,44.270832 0 0 1 115.10416,-238.54166 a 120.3125,44.270832 0 0 1 120.3125,44.27083 z"
       style="opacity:1;fill:#e0d9c5;fill-opacity:1;stroke:none;stroke-width:5;stroke-linecap:round;stroke-linejoin:round;stroke-miterlimit:4;stroke-dasharray:none;stroke-dashoffset:0;stroke-opacity:1" />
    <path
       style="color:#000000;font-style:normal;font-variant:normal;font-weight:normal;font-stretch:normal;font-size:226.45684814px;line-height:100%;font-family:'Poetsen One';-inkscape-font-specification:'Poetsen One';text-indent:0;text-align:start;text-decoration:none;text-decoration-line:none;letter-spacing:-9.03330517px;word-spacing:2.66111398px;text-transform:none;direction:ltr;block-progression:tb;writing-mode:lr-tb;baseline-shift:baseline;text-anchor:start;display:inline;overflow:visible;visibility:visible;fill:#000000;fill-opacity:1;fill-rule:nonzero;stroke:none;stroke-width:51.39003372;marker:none;enable-background:accumulate"
       d="m 93.782482,-214.79539 c -0.28567,2e-5 -0.584899,0.003 -1.03072,0.0863 -0.445827,0.0832 -1.135816,0.11536 -2.120469,1.08975 -0.0061,0.004 -0.01214,0.009 -0.01815,0.0136 -1.200406,1.2007 -1.047235,1.78455 -1.130617,2.22036 -0.07897,0.41278 -0.102686,0.72469 -0.118054,1.05343 -0.0011,0.0161 -0.0033,0.0248 -0.0045,0.0408 -2.95e-4,0.006 2.89e-4,0.0125 0,0.0182 -0.05394,0.89983 -0.09456,1.47787 -0.145301,2.29301 -0.375425,-0.17753 -0.755019,-0.3365 -1.144237,-0.44952 -1.113506,-0.32328 -2.253891,-0.44496 -3.441784,-0.44498 -1.741154,2e-5 -3.443094,0.2905 -4.994679,1.08521 -0.07767,0.0398 -0.14218,0.0942 -0.217949,0.13621 -0.314516,-0.16624 -0.632445,-0.32698 -0.948989,-0.44044 -1.000026,-0.35833 -1.939918,-0.44949 -2.887831,-0.44952 l -1.012557,0 c -0.196654,-1.04479 -0.577096,-2.08538 -1.335036,-3.02405 -1.570965,-1.94533 -3.734533,-2.24303 -5.60312,-2.24306 l -1.807166,0 c -0.75763,5e-5 -1.952156,0.20033 -2.946859,1.13061 -0.994703,0.93028 -1.316786,2.26698 -1.316779,3.0967 -10e-7,0.15399 -0.02714,0.85042 -0.09081,1.82987 -0.04937,0.75939 -0.115693,1.65505 -0.190706,2.61993 0.347244,0.26352 0.669939,0.55524 0.962611,0.88543 0.36151,0.40787 0.673397,0.85338 0.944447,1.32586 0.02856,-0.35996 0.0577,-0.76415 0.08627,-1.11245 0.109136,-1.33028 0.198656,-2.49197 0.263356,-3.4872 0.06464,-0.9943 0.09081,-1.68902 0.09081,-1.95246 -5e-6,-0.49703 0.185215,-1.22829 0.726498,-1.73452 0.541283,-0.50623 1.204267,-0.62657 1.670947,-0.62661 l 1.807165,0 c 1.603391,3e-5 3.13435,0.29053 4.150123,1.54835 0.83528,1.03445 1.1079,2.33489 1.10791,3.70969 0,0.0814 -0.01084,0.23378 -0.01362,0.31784 0.301832,-0.18408 0.544307,-0.21942 0.731039,-0.25427 0.266863,-0.0498 0.476035,-0.059 0.690173,-0.059 l 1.284995,0 c 0.802981,2e-5 1.542785,0.0847 2.256686,0.34054 0.571536,0.20486 1.108776,0.51205 1.575593,0.92629 0.336334,-0.27157 0.687851,-0.51632 1.071585,-0.71288 1.214603,-0.6221 2.612407,-0.88085 4.141042,-0.88087 1.054515,2e-5 2.027324,0.10741 2.924159,0.36779 0,0.002 0,0.003 0,0.004 0.956478,0.27775 1.840427,0.78976 2.524583,1.50748 0.295277,0.30982 0.545105,0.65786 0.762823,1.02618 0.120759,-1.79661 0.247279,-3.6991 0.390492,-6.08896 5.57e-4,-0.0124 -5.56e-4,-0.0194 0,-0.0318 l 0.0045,0 c 0.01314,-0.28152 0.0285,-0.53449 0.08174,-0.81277 0.05533,-0.2892 -6.7e-5,-0.62639 0.622064,-1.24867 0.0028,-0.003 0.0061,-0.006 0.0091,-0.009 0.508898,-0.50359 0.881935,-0.53138 1.148774,-0.5812 0.266845,-0.0498 0.476046,-0.0545 0.690178,-0.0545 l 1.28499,0 c 0.819827,3e-5 1.571056,0.0793 2.293012,0.33147 0.643238,0.22475 1.255378,0.56525 1.757223,1.06704 0.474119,0.47418 0.834493,1.08824 1.017093,1.73906 0.14484,0.51638 0.21794,1.05215 0.21795,1.58921 -1e-5,0.31247 -0.0207,0.68923 -0.0545,1.22143 -0.0326,0.51195 -0.0698,1.13291 -0.11352,1.86619 -0.013,0.21779 -0.0387,0.4984 -0.0545,0.73104 l 1.80262,-1.6437 c 0.006,-0.006 0.0121,-0.0121 0.0182,-0.0181 0.3037,-0.26971 0.63673,-0.51693 1.0943,-0.69926 0.27046,-0.10772 0.51428,-0.23145 1.06704,-0.23157 1.03342,8e-5 1.69314,0.559 2.15679,1.05797 0.37758,0.40642 0.71873,0.85853 1.02618,1.3531 0.19211,0.30909 0.35956,0.62852 0.51309,0.95353 0.50202,-0.67125 1.1064,-1.25748 1.79808,-1.72543 0.91127,-0.61648 1.94008,-1.05668 3.04222,-1.31224 1.03269,-0.23942 2.07604,-0.35869 3.1194,-0.35871 2.11016,2e-5 3.93602,0.38654 5.31252,1.53927 0.69642,0.58324 1.2135,1.34357 1.5529,2.1795 0.36115,-0.46101 0.76304,-0.89362 1.21234,-1.285 0.86414,-0.7527 1.8827,-1.34135 3.01497,-1.77084 1.22009,-0.46276 2.58122,-0.66291 4.06839,-0.66293 1.22116,2e-5 2.33705,0.13771 3.35551,0.46769 0.96065,0.31129 1.8286,0.75866 2.55637,1.3758 0.39563,0.33553 0.74541,0.72019 1.04434,1.13969 0.36299,-0.43522 0.78089,-0.83036 1.24867,-1.16693 0.84643,-0.60898 1.83215,-1.0447 2.93778,-1.35311 1.14885,-0.32042 2.41454,-0.46312 3.79596,-0.46314 2.69263,2e-5 4.95784,0.53184 6.56118,2.00695 0.68191,0.6274 1.19677,1.39032 1.56652,2.23853 0.0318,-0.40748 0.0695,-0.92699 0.0953,-1.18056 0.002,-0.0244 0.007,-0.0905 0.009,-0.11352 l 0.004,0 c 0.0137,-0.24806 0.0245,-0.48104 0.0726,-0.73104 0.0556,-0.2889 5.5e-4,-0.62266 0.62206,-1.24413 0.51101,-0.51089 0.89051,-0.54028 1.15786,-0.59028 0.26735,-0.05 0.47604,-0.059 0.69017,-0.059 l 1.28046,0 c 1.35969,1e-5 2.63614,0.27208 3.65065,1.09882 0.25227,-0.19952 0.51567,-0.38042 0.79915,-0.53579 1.14079,-0.62522 2.46289,-0.88994 3.87768,-0.88996 2.4458,2e-5 4.67363,0.85351 6.09806,2.59269 0.53059,0.64789 0.93153,1.38482 1.23504,2.2022 0.51419,-0.80867 1.1437,-1.5462 1.87982,-2.19311 0.90998,-0.79971 1.98902,-1.42186 3.19659,-1.88436 1.29959,-0.49772 2.75166,-0.7174 4.34991,-0.71742 1.2842,2e-5 2.44185,0.14212 3.4872,0.49038 0.98405,0.32792 1.8714,0.80349 2.59268,1.4757 0.0726,0.0676 0.1352,0.14243 0.20433,0.21341 0.0328,-0.42641 0.0585,-0.75787 0.0953,-1.24413 0.0866,-1.14375 0.18301,-2.52369 0.2906,-4.12287 0,-0.0143 0.004,-0.0267 0.004,-0.0409 0.0135,-0.27767 0.0333,-0.52878 0.0863,-0.80369 0.0556,-0.2889 -0.004,-0.62269 0.61752,-1.24413 0.003,-0.003 0.006,-0.006 0.009,-0.009 0.50888,-0.50359 0.88647,-0.53139 1.15331,-0.5812 0.26685,-0.0498 0.4715,-0.0545 0.68563,-0.0545 l 1.94338,0 c 1.44957,3e-5 2.79083,0.23307 3.84136,1.19418 0.82373,0.75371 1.38035,1.89738 1.38035,3.03767 0,0.51571 -0.0453,1.09341 -0.12714,1.78447 -0.0809,0.6828 -0.19146,1.42994 -0.32692,2.24306 -0.13411,0.80497 -0.28245,1.64542 -0.44952,2.52458 -0.16519,0.86923 -0.33006,1.7273 -0.49493,2.57453 -0.16492,0.84743 -0.32697,1.65787 -0.48131,2.42923 -0.1491,0.74517 -0.27814,1.3777 -0.38594,1.91614 -0.003,0.0164 -0.006,0.0428 -0.009,0.059 l -0.004,0 c -0.0721,0.44178 -0.13795,0.96093 -0.79461,1.54835 -0.15808,0.14141 -0.3159,0.2482 -0.46768,0.33146 0.0582,0.0575 0.12657,0.0962 0.18162,0.15892 0.76149,0.86809 1.05341,2.00541 1.05343,3.11941 -2e-5,0.50632 -0.0587,1.01909 -0.16801,1.53927 -0.13304,0.63265 -0.38397,1.23911 -0.73104,1.78446 -0.40585,0.63766 -0.97416,1.14937 -1.61192,1.52565 -0.80069,0.47238 -1.69982,0.64022 -2.61085,0.64022 -1.31181,0 -2.7416,-0.40129 -3.55076,-1.58922 -0.12077,-0.17729 -0.2152,-0.36784 -0.30876,-0.55849 -0.50737,0.47589 -1.09905,0.85933 -1.7436,1.15332 -0.7889,0.35981 -1.64152,0.61179 -2.54729,0.76736 -0.86427,0.14844 -1.71932,0.22703 -2.55636,0.22703 -1.1209,0 -2.23804,-0.13972 -3.33736,-0.41774 -1.19258,-0.30159 -2.30036,-0.84238 -3.26016,-1.59375 -0.91375,-0.71531 -1.64691,-1.64682 -2.21582,-2.71529 -0.22592,0.39463 -0.46313,0.77934 -0.73104,1.13516 -0.85048,1.12949 -1.90042,2.04167 -3.11032,2.66079 -1.20454,0.61637 -2.53855,0.93083 -3.90947,0.93083 -0.98693,0 -1.93041,-0.16779 -2.77886,-0.53125 -0.008,0.0832 -0.009,0.14016 -0.0181,0.23157 -0.0306,0.30367 -0.0703,0.74583 -0.11352,1.3077 -0.0446,0.58014 -0.11204,1.36904 -0.19979,2.37928 -1.1e-4,0.001 1.1e-4,0.003 0,0.004 -0.0374,0.4503 -0.0137,0.99438 -0.70379,1.68458 0,0.002 0,0.003 0,0.004 -0.80308,0.80297 -1.40331,0.67654 -1.87981,0.67654 l -1.18057,0 c -0.81059,0 -1.54281,-0.0723 -2.25214,-0.30875 -0.65003,-0.21669 -1.27944,-0.56803 -1.77992,-1.08975 -0.4822,-0.50268 -0.81663,-1.14221 -0.98532,-1.79809 -0.1479,-0.57505 -0.20887,-1.1716 -0.20887,-1.79808 0,-0.26289 0.0392,-0.77942 0.0681,-1.2305 -0.75881,0.32434 -1.58398,0.46767 -2.43377,0.46767 -1.35129,0 -2.68444,-0.3409 -3.65973,-1.27591 -0.092,-0.0882 -0.1656,-0.19149 -0.24974,-0.28606 -0.1707,0.13126 -0.34168,0.2641 -0.52217,0.38596 -1.22972,0.8302 -2.72926,1.17601 -4.34991,1.17601 -0.80333,0 -1.58883,-0.097 -2.33841,-0.29513 -0.81168,-0.21449 -1.57522,-0.58745 -2.22037,-1.11699 -0.40154,-0.3296 -0.73066,-0.73222 -1.02164,-1.1624 -0.14562,0.1386 -0.28937,0.27019 -0.50854,0.46314 -0.43195,0.38024 -0.91394,0.68684 -1.46663,0.97623 -0.58777,0.30776 -1.23461,0.56269 -1.93884,0.77645 -0.81513,0.24742 -1.6823,0.3587 -2.58361,0.3587 -1.02187,0 -2.05619,-0.15519 -3.09215,-0.44951 -1.14994,-0.3267 -2.21269,-0.90729 -3.12849,-1.6982 -0.54024,-0.46655 -1.0026,-1.01973 -1.41213,-1.63008 -0.36484,0.66282 -0.8354,1.26826 -1.40759,1.78446 -1.57835,1.4239 -3.7657,1.99333 -6.28421,1.99333 -0.71397,0 -1.49388,-0.0576 -2.35205,-0.16345 -0.89124,-0.10992 -1.74997,-0.28014 -2.57452,-0.51763 -0.58417,-0.16826 -1.11668,-0.4068 -1.62555,-0.67656 -0.21665,0.21707 -0.44625,0.42318 -0.69471,0.60391 -0.69533,0.50573 -1.5682,0.75373 -2.39745,0.75373 -1.00728,0 -1.98544,-0.3566 -2.81064,-0.9172 -0.7587,-0.51539 -1.45466,-1.17386 -2.111369,-1.95699 -0.215886,-0.25744 -0.427664,-0.5476 -0.640227,-0.83093 -0.02705,0.33086 -0.05472,0.6788 -0.08173,1.00347 5e-6,0.002 5e-6,0.003 0,0.004 -0.03791,0.45107 -0.01158,0.99684 -0.703793,1.68911 -0.803073,0.80301 -1.40329,0.67655 -1.879814,0.67655 l -1.185105,0 c -0.810598,0 -1.548261,-0.0738 -2.256685,-0.30422 -0.663795,-0.21586 -1.307773,-0.56722 -1.816242,-1.12154 -0.02789,-0.0304 -0.05043,-0.0641 -0.07719,-0.0953 -0.07824,0.26073 -0.213704,0.54759 -0.599359,0.8945 -0.890952,0.80119 -1.432985,0.62661 -1.970627,0.62661 l -1.053424,0 c -0.818252,0 -1.546675,-0.0623 -2.247607,-0.27244 -0.649439,-0.19467 -1.281172,-0.50924 -1.802621,-1.03072 -0.480193,-0.48016 -0.821402,-1.09854 -0.994395,-1.72997 -2.95e-4,-0.001 2.89e-4,-0.003 0,-0.004 -0.150962,-0.55489 -0.213426,-1.13249 -0.213409,-1.72544 -1.7e-5,-0.58142 0.04642,-1.25864 0.127133,-2.07506 0.07627,-0.77182 0.150878,-1.58653 0.227035,-2.44739 0.07696,-0.87028 0.154173,-1.71321 0.231571,-2.52913 0.07324,-0.77236 0.108959,-1.4007 0.108976,-1.86165 -6e-6,-0.14849 -0.01765,-0.25761 -0.04542,-0.34962 -0.0344,0.002 0.0017,0.009 -0.09535,0.009 -0.465703,0 -0.658272,0.0912 -0.799146,0.19524 -0.03258,0.0241 -0.3423,0.35778 -0.612983,1.14424 -0.270621,0.78626 -0.543712,2.05212 -0.753742,3.70968 -0.213039,1.68121 -0.417051,3.88006 -0.612983,6.57935 2.8e-5,0.006 2.8e-5,0.0121 0,0.0182 -0.03685,0.4525 -0.01274,1.00065 -0.708337,1.69365 -0.802036,0.79893 -1.40329,0.67655 -1.879815,0.67655 l -1.18056,0 c -0.8106,0 -1.542796,-0.0723 -2.252145,-0.30876 -0.650042,-0.21668 -1.279429,-0.56347 -1.779921,-1.08521 -0.176309,-0.18379 -0.3087,-0.40308 -0.444981,-0.61752 -0.0479,0.35115 -0.127577,0.76354 -0.544874,1.24867 -0.666757,0.77498 -1.372704,0.76282 -1.811705,0.76282 l -1.807166,0 c -1.472907,0 -2.836276,-0.24101 -3.895848,-1.21235 -0.87693,-0.80389 -1.301926,-1.98316 -1.366725,-3.15118 -0.468082,0.7244 -1.023478,1.3915 -1.666407,1.97971 0.325979,0.90466 0.8421,1.7659 1.575594,2.43831 1.592636,1.46001 3.436202,1.70727 5.1536,1.70727 l 1.811705,0 c 0.599472,0 1.658734,0.0425 2.769776,-0.95353 0.399924,0.22927 0.814107,0.41062 1.216885,0.54487 0.990931,0.33032 1.901374,0.40866 2.842425,0.40866 l 1.180561,0 c 0.667877,0 1.680558,0.28874 3.196593,-1.22142 0.501092,-0.49923 0.757168,-0.92685 0.930826,-1.32133 0.173686,0.24341 0.35981,0.47788 0.572117,0.69018 0.801586,0.80163 1.728095,1.24059 2.588154,1.4984 0.963057,0.28871 1.848476,0.35417 2.783395,0.35417 l 1.053425,0 c 0.651821,0 1.434298,0.32117 2.87875,-0.83093 0.337547,0.17427 0.675494,0.32322 1.008015,0.43135 0.978369,0.31816 1.892293,0.39958 2.833346,0.39958 l 1.185099,0 c 0.66788,0 1.682697,0.29237 3.201135,-1.22597 0.135092,-0.1351 0.197796,-0.24988 0.304222,-0.37687 0.282085,0.23815 0.555817,0.48623 0.862717,0.69472 1.069,0.72622 2.43742,1.23505 3.85952,1.23505 1.12048,0 2.3823,-0.3449 3.39638,-1.04889 0.2679,0.0992 0.52932,0.21612 0.80369,0.29514 0.92513,0.26646 1.88329,0.45557 2.86513,0.57666 0.91569,0.11293 1.76502,0.17709 2.57907,0.17709 2.79911,0 5.49936,-0.63602 7.53743,-2.47464 0.0837,-0.0756 0.15556,-0.16154 0.2361,-0.24066 0.0401,0.0359 0.0728,0.0783 0.11352,0.11352 1.10761,0.95656 2.4253,1.68313 3.83682,2.08415 1.1836,0.33626 2.39495,0.51763 3.60525,0.51763 1.05687,0 2.10788,-0.13203 3.12395,-0.44045 0.79424,-0.24109 1.54205,-0.5294 2.25668,-0.90358 0.3114,-0.16305 0.6128,-0.33923 0.90813,-0.53125 0.0148,0.0124 0.0259,0.0286 0.0409,0.0409 0.86253,0.70798 1.88675,1.2049 2.9287,1.48024 0.91778,0.24252 1.86657,0.35417 2.81518,0.35417 1.62482,0 3.25215,-0.32827 4.70862,-1.11245 1.26952,0.82357 2.74776,1.11245 4.07748,1.11245 0.18204,0 0.36525,-0.0168 0.54941,-0.0272 0.0414,0.39303 0.11048,0.78945 0.21341,1.18964 0.23863,0.92783 0.73643,1.88222 1.44845,2.62447 0.7486,0.78036 1.66139,1.27575 2.53367,1.56651 0.9909,0.33029 1.90139,0.40411 2.84242,0.40412 l 1.18057,0 c 0.66784,-1e-5 1.68267,0.29683 3.20113,-1.22143 1.29107,-1.29125 1.192,-2.20826 1.24413,-2.84696 2.9e-4,-0.003 -2.9e-4,-0.006 0,-0.009 0.064,-0.73718 0.10396,-1.2366 0.1453,-1.74813 0.36931,0.0384 0.73903,0.0681 1.10337,0.0681 1.64465,0 3.29726,-0.38054 4.7631,-1.13062 1.12173,-0.574 2.12252,-1.35905 2.97864,-2.28392 0.33617,0.35937 0.68649,0.70299 1.07614,1.00801 1.1628,0.9103 2.524,1.56791 3.95487,1.92977 1.24437,0.31469 2.51496,0.47676 3.79142,0.47676 0.95045,0 1.90897,-0.0847 2.86967,-0.24974 1.04368,-0.17926 2.05788,-0.47367 3.01042,-0.90812 0.20068,-0.0915 0.39485,-0.19647 0.59028,-0.30422 1.2627,1.09919 2.92321,1.46208 4.2364,1.46208 1.14192,0 2.38623,-0.2021 3.55984,-0.8945 0.84775,-0.50017 1.65711,-1.22061 2.23852,-2.13409 0.46387,-0.72887 0.8024,-1.55374 0.98077,-2.40199 0.13106,-0.6233 0.2134,-1.25882 0.21342,-1.92068 -2e-5,-0.95956 -0.20578,-2.02202 -0.67201,-3.01043 0.56114,-0.77392 0.60406,-1.41237 0.68562,-1.89798 0.1059,-0.52885 0.2275,-1.13781 0.37233,-1.86165 0.15504,-0.77488 0.31581,-1.58795 0.48131,-2.43831 0.16541,-0.84999 0.33378,-1.71176 0.49947,-2.58361 0.16946,-0.89176 0.32192,-1.74512 0.45861,-2.56545 0.13936,-0.83667 0.25086,-1.61075 0.33599,-2.32933 0.0871,-0.73511 0.14075,-1.366 0.14076,-2.00241 -3e-5,-1.64464 -0.85224,-3.38224 -1.98424,-4.41803 -1.5854,-1.45056 -3.41063,-1.68446 -5.10344,-1.6845 l -1.94338,0 c -0.28568,3e-5 -0.58491,0.003 -1.03073,0.0863 -0.44582,0.0832 -1.13581,0.11534 -2.12046,1.08974 -0.004,0.004 -0.009,0.009 -0.0136,0.0136 -1.19874,1.19902 -1.05139,1.78062 -1.13515,2.21583 -0.0776,0.40322 -0.0977,0.70983 -0.11353,1.03072 l -0.004,0 c -0.002,0.0318 -0.002,0.0501 -0.004,0.0817 -0.0576,0.85527 -0.1029,1.48368 -0.15438,2.20675 -0.18931,-0.0751 -0.37992,-0.15391 -0.57212,-0.21796 -1.30107,-0.43347 -2.64522,-0.58571 -4.07293,-0.58574 -1.77059,3e-5 -3.45399,0.23954 -5.02191,0.84002 -1.38388,0.53003 -2.66786,1.26599 -3.76419,2.22944 -0.12093,0.10629 -0.23298,0.22071 -0.34962,0.33147 -0.0313,-0.0395 -0.0542,-0.0834 -0.0863,-0.1226 -1.80686,-2.20612 -4.71222,-3.2783 -7.54196,-3.27833 -1.60794,3e-5 -3.21326,0.30077 -4.66776,1.07159 -1.18766,-0.58142 -2.4633,-0.7401 -3.65973,-0.74012 l -1.28046,0 c -0.28568,2e-5 -0.58372,0.003 -1.03072,0.0863 -0.44699,0.0836 -1.14487,0.11439 -2.13409,1.10337 -0.002,0 -0.003,0 -0.004,0 -0.18111,0.18115 -0.27911,0.32227 -0.40411,0.47677 -2.01918,-1.52929 -4.53308,-1.99785 -7.20596,-1.99788 -1.51231,3e-5 -2.94096,0.15349 -4.29542,0.53126 -1.26802,0.3537 -2.46045,0.86651 -3.52807,1.63462 -0.025,0.018 -0.0478,0.0408 -0.0727,0.059 -0.93335,-0.772 -1.99804,-1.30143 -3.11032,-1.66187 -1.25802,-0.40759 -2.56496,-0.56301 -3.93217,-0.56304 -1.65823,3e-5 -3.24055,0.22183 -4.72678,0.78553 -1.17935,0.44735 -2.28212,1.06528 -3.25563,1.84803 -0.21173,-0.23482 -0.42956,-0.45914 -0.66746,-0.65839 -1.87571,-1.57077 -4.15598,-1.97514 -6.51125,-1.97517 -1.18766,3e-5 -2.37568,0.13834 -3.54168,0.40866 -1.30488,0.30257 -2.55923,0.8295 -3.66881,1.58013 0,0.002 0,0.003 0,0.004 -0.14081,0.0953 -0.2689,0.20564 -0.40412,0.30876 -0.16528,-0.20957 -0.33026,-0.42072 -0.51309,-0.61752 -0.64211,-0.69103 -1.70219,-1.65265 -3.52806,-1.65279 -1.0178,1.5e-4 -1.38096,0.21793 -1.75722,0.36779 -0.0591,0.0236 -0.094,0.0528 -0.14984,0.0772 -0.016,-0.63752 -0.0989,-1.27926 -0.27243,-1.89799 -0.26679,-0.95085 -0.80904,-1.86691 -1.49386,-2.55182 -0.002,0 -0.003,0 -0.005,0 -0.740545,-0.74015 -1.613635,-1.21582 -2.461298,-1.512 -1.005099,-0.35107 -1.945818,-0.43587 -2.905997,-0.4359 l -1.284996,0 z m -33.037523,16.6141 c -0.06446,0.8506 -0.131087,1.68196 -0.195247,2.47918 -0.043,0.53426 -0.08156,1.02985 -0.118056,1.5211 0.08914,-0.37327 0.159591,-0.74884 0.204328,-1.12153 0.09148,-0.76239 0.136202,-1.44056 0.136219,-2.02966 -4e-6,-0.29861 -0.0081,-0.57917 -0.02724,-0.84909 z"
       id="text2985-9-1" />
    <g
       id="text2985-8"
       style="font-style:normal;font-variant:normal;font-weight:normal;font-stretch:normal;font-size:32.90411377px;line-height:100%;font-family:'Poetsen One';-inkscape-font-specification:'Poetsen One';text-align:start;letter-spacing:-1.3125366px;word-spacing:0.38665909px;writing-mode:lr-tb;text-anchor:start;fill:#000000;fill-opacity:1;stroke:none">
      <path
         id="path8409"
         style="letter-spacing:-1.3125366px;word-spacing:0.38665909px;fill:#000000;fill-opacity:1"
         d="m 37.514159,-190.48731 q -0.822603,1.48068 -2.007151,2.20457 -1.184548,0.69099 -2.96137,0.69099 -1.349069,0 -2.467809,-0.42776 -1.11874,-0.42775 -1.908438,-1.34907 -0.789699,-0.92131 -1.250357,-2.30328 -0.427753,-1.41488 -0.427753,-3.35622 0,-1.5794 0.329041,-3.32332 0.329041,-1.77682 1.184548,-3.25751 0.888411,-1.48068 2.402,-2.4349 1.51359,-0.98712 3.882686,-0.98712 0.987123,0 1.67811,0.23033 0.72389,0.19742 1.217452,0.55937 0.526466,0.36194 0.822603,0.8555 0.329041,0.49356 0.493561,1.05293 0,0.0329 0,-0.23032 0.0329,-0.29614 0.06581,-0.65809 0.0329,-0.36194 0.0329,-0.69098 0.0329,-0.36195 0.0329,-0.46066 0.0329,-0.32904 0.427753,-0.32904 l 1.51359,0 q 1.711013,0 2.467808,0.72389 0.789699,0.69098 0.789699,2.66523 0,0.26323 -0.0329,1.21745 -0.0329,0.92132 -0.131617,2.23748 -0.06581,1.31617 -0.197424,2.92847 -0.131617,1.5794 -0.296137,3.1917 -0.164521,1.6123 -0.361946,3.09299 -0.197424,1.48068 -0.427753,2.59942 -0.230329,1.11874 -0.789699,2.17167 -0.55937,1.05293 -1.579397,1.87554 -1.020028,0.8226 -2.632329,1.31616 -1.579398,0.49356 -3.882686,0.49356 -1.743918,0 -3.060082,-0.32904 -1.283261,-0.32904 -2.138768,-0.88841 -0.855507,-0.52647 -1.316164,-1.21745 -0.427754,-0.69099 -0.427754,-1.38197 0,-0.62518 0.263233,-1.08584 0.263233,-0.46066 0.690986,-0.75679 0.427754,-0.29614 0.921316,-0.46066 0.526465,-0.13162 0.987123,-0.13162 0.55937,0 0.822603,0.32904 0.263233,0.32904 0.592274,0.72389 0.329041,0.42776 0.921315,0.7568 0.592274,0.32904 1.84263,0.32904 2.171672,0 3.027179,-1.6123 0.888411,-1.5794 0.888411,-4.57367 z m -2.763946,-1.48069 q 1.184549,0 1.842631,-0.55937 0.690986,-0.55937 1.052931,-1.34907 0.361946,-0.7897 0.460658,-1.6452 0.09871,-0.85551 0.09871,-1.48069 0,-1.97425 -0.625178,-2.79685 -0.592274,-0.85551 -1.809726,-0.85551 -1.217452,0 -1.908439,0.65809 -0.690986,0.65808 -1.052931,1.57939 -0.329041,0.88841 -0.427754,1.80973 -0.09871,0.88841 -0.09871,1.38197 0,1.64521 0.55937,2.46781 0.55937,0.7897 1.908438,0.7897 z" />
      <path
         id="path8411"
         style="letter-spacing:-1.3125366px;word-spacing:0.38665909px;fill:#000000;fill-opacity:1"
         d="m 52.799178,-186.27559 q -2.270384,0 -3.783973,-0.62518 -1.480685,-0.65808 -2.369096,-1.77682 -0.888411,-1.11874 -1.250357,-2.59942 -0.361945,-1.51359 -0.361945,-3.22461 0,-1.97424 0.460658,-3.84978 0.493562,-1.90844 1.645206,-3.38912 1.151643,-1.48069 3.027178,-2.3691 1.908439,-0.92131 4.738192,-0.92131 4.145919,0 5.922741,2.04005 1.809726,2.00715 1.809726,5.65951 0,1.02003 -0.16452,2.27038 -0.131617,1.21746 -0.55937,2.43491 -0.39485,1.21745 -1.11874,2.36909 -0.690987,1.15165 -1.776822,2.04006 -1.085836,0.88841 -2.63233,1.41488 -1.513589,0.52646 -3.586548,0.52646 z m 1.546493,-14.3791 q -1.250356,0 -2.007151,0.65809 -0.72389,0.62517 -1.118739,1.54649 -0.361946,0.88841 -0.493562,1.90844 -0.09871,0.98712 -0.09871,1.67811 0,2.17167 0.690986,3.1917 0.690986,1.02002 1.974247,1.02002 1.151644,0 1.875534,-0.72389 0.756795,-0.72389 1.151644,-1.74391 0.427754,-1.02003 0.55937,-2.13877 0.164521,-1.11874 0.164521,-1.87554 0,-1.6452 -0.625178,-2.56652 -0.592274,-0.95422 -2.07296,-0.95422 z" />
      <path
         id="path8413"
         style="letter-spacing:-1.3125366px;word-spacing:0.38665909px;fill:#000000;fill-opacity:1"
         d="m 67.532537,-186.60463 q -1.84263,0 -2.632329,-0.72389 -0.789698,-0.72389 -0.789698,-2.07296 0,-0.65808 0.09871,-2.23748 0.09871,-1.6123 0.263233,-3.65236 0.16452,-2.04005 0.329041,-4.31043 0.164521,-2.27039 0.329041,-4.27754 0.164521,-2.00715 0.263233,-3.52074 0.09871,-1.51359 0.09871,-2.07296 0,-0.49356 0.526466,-0.49356 l 1.809726,0 q 2.007151,0 2.698138,0.85551 0.690986,0.8555 0.690986,2.53361 0,0.16452 -0.06581,1.05294 -0.0329,0.88841 -0.131617,2.23747 -0.09871,1.34907 -0.230328,3.02718 -0.09871,1.64521 -0.230329,3.38913 -0.09871,1.74392 -0.230329,3.42202 -0.09871,1.64521 -0.197425,2.99428 -0.09871,1.34907 -0.16452,2.27038 -0.06581,0.88841 -0.09871,1.08584 -0.0329,0.26323 -0.131616,0.39485 -0.09871,0.0987 -0.394849,0.0987 l -1.809727,0 z" />
      <path
         id="path8415"
         style="letter-spacing:-1.3125366px;word-spacing:0.38665909px;fill:#000000;fill-opacity:1"
         d="m 84.036039,-189.50019 q 0,-0.72389 0.09871,-1.87554 0.131616,-1.18454 0.230329,-2.4678 0.131616,-1.31617 0.230329,-2.53362 0.131616,-1.21745 0.131616,-2.04006 0,-0.8555 -0.427753,-1.51359 -0.39485,-0.69098 -1.579398,-0.69098 -1.151644,0 -1.908439,0.55937 -0.756794,0.55937 -1.28326,2.04005 -0.493562,1.48069 -0.822603,4.08011 -0.329041,2.59943 -0.625178,6.67954 -0.0329,0.39485 -0.164521,0.52646 -0.131616,0.13162 -0.559369,0.13162 l -1.184549,0 q -1.020027,0 -1.678109,-0.19742 -0.625179,-0.23033 -1.020028,-0.62518 -0.361945,-0.39485 -0.526466,-0.95422 -0.131616,-0.59228 -0.131616,-1.34907 0,-0.49356 0.0329,-1.38197 0.06581,-0.92132 0.197425,-2.50072 0.131616,-1.6123 0.296137,-4.0472 0.197424,-2.46781 0.460657,-6.08726 0.0329,-0.72389 0.164521,-0.85551 0.09871,-0.0987 0.526466,-0.0987 l 1.28326,0 q 0.987123,0 1.612302,0.23033 0.658082,0.23033 1.052931,0.62517 0.39485,0.36195 0.55937,0.88842 0.164521,0.49356 0.197425,1.02002 1.020027,-1.74391 2.336192,-2.402 1.316165,-0.69098 3.290411,-0.69098 1.381973,0 2.402001,0.29613 1.020027,0.29614 1.678109,1.02003 0.690987,0.69099 1.020028,1.84263 0.329041,1.11874 0.329041,2.79685 0,0.52647 -0.06581,1.51359 -0.06581,0.98712 -0.164521,2.17167 -0.09871,1.15165 -0.230328,2.43491 -0.09871,1.25035 -0.197425,2.33619 -0.09871,1.08583 -0.164521,1.90844 -0.06581,0.8226 -0.06581,1.08583 0,0.72389 -0.164521,0.88841 -0.16452,0.13162 -0.72389,0.13162 l -1.052932,0 q -1.052931,0 -1.711014,-0.19742 -0.658082,-0.19743 -1.020027,-0.55937 -0.361945,-0.36195 -0.526466,-0.88842 -0.131616,-0.55937 -0.131616,-1.25035 z" />
      <path
         id="path8417"
         style="letter-spacing:-1.3125366px;word-spacing:0.38665909px;fill:#000000;fill-opacity:1"
         d="m 107.50492,-189.26986 q 0,0.16452 -0.16452,0.65808 -0.16452,0.49356 -0.52646,1.02003 -0.36195,0.52646 -0.92132,0.92131 -0.52646,0.39485 -1.28326,0.39485 -0.88841,0 -1.77682,-0.59227 -0.85551,-0.59228 -1.71101,-1.6123 -0.85551,-1.02003 -1.743922,-2.402 -0.855507,-1.41488 -1.743918,-3.06009 -0.131616,1.74392 -0.263233,3.42203 -0.131616,1.67811 -0.263233,3.25751 -0.0329,0.39485 -0.16452,0.52646 -0.131617,0.13162 -0.55937,0.13162 l -1.184548,0 q -1.020028,0 -1.67811,-0.19742 -0.658082,-0.23033 -1.020028,-0.62518 -0.361945,-0.39485 -0.526465,-0.98713 -0.131617,-0.62517 -0.131617,-1.41487 0,-0.39485 0.0329,-0.82261 0.0329,-0.42775 0.09871,-1.21745 0.06581,-0.7897 0.16452,-2.07296 0.131617,-1.28326 0.296137,-3.38912 0.164521,-2.10586 0.361945,-5.16595 0.230329,-3.09298 0.493562,-7.50213 0.0329,-0.72389 0.164521,-0.85551 0.09871,-0.0987 0.526465,-0.0987 l 1.283261,0 q 1.020027,0 1.67811,0.23033 0.658082,0.23032 1.052931,0.62517 0.39485,0.39485 0.526466,0.92132 0.164521,0.52646 0.164521,1.08583 0,0.32905 -0.06581,1.11874 -0.0329,0.7568 -0.09871,1.87554 -0.06581,1.08583 -0.197425,2.46781 -0.09871,1.38197 -0.197424,2.89556 l 5.264654,-4.804 q 0.29614,-0.26323 0.52647,-0.36195 0.26323,-0.0987 0.39485,-0.0987 0.36194,0 0.78969,0.46066 0.42776,0.46066 0.7897,1.08583 0.39485,0.59228 0.62518,1.25036 0.26323,0.62518 0.26323,1.02003 0,0.95422 -1.54649,2.00715 -1.51359,1.05293 -4.60658,2.3691 1.38198,1.54649 2.63233,2.82975 1.25036,1.28326 2.17168,2.27038 0.95421,0.98713 1.51358,1.6123 0.55937,0.62518 0.55937,0.82261 z" />
      <path
         id="path8419"
         style="letter-spacing:-1.3125366px;word-spacing:0.38665909px;fill:#000000;fill-opacity:1"
         d="m 115.96697,-205.03093 q 2.79685,0 4.11302,1.11874 1.31616,1.08583 1.31616,2.79685 0,1.44778 -0.92131,2.20457 -0.88842,0.7568 -2.59943,0.7568 -0.46066,0 -0.62518,-0.0987 -0.16452,-0.0987 -0.16452,-0.36194 0,-0.29614 -0.0658,-0.65808 -0.0329,-0.39485 -0.23033,-0.72389 -0.16452,-0.36195 -0.55937,-0.59228 -0.36194,-0.23033 -1.05293,-0.23033 -0.92131,0 -1.48068,0.46066 -0.55937,0.42775 -0.55937,1.08584 0,0.69098 0.55937,1.11874 0.59227,0.39485 1.44778,0.75679 0.88841,0.36195 1.90844,0.7568 1.02002,0.36194 1.87553,0.98712 0.88841,0.62518 1.44778,1.5794 0.59228,0.92131 0.59228,2.402 0,2.36909 -1.67811,3.88268 -1.67811,1.51359 -5.03433,1.51359 -0.92132,0 -2.13877,-0.16452 -1.18455,-0.13162 -2.27038,-0.42775 -1.08584,-0.32904 -1.84263,-0.85551 -0.72389,-0.52647 -0.72389,-1.31616 0,-0.29614 0.0987,-0.72389 0.13161,-0.42776 0.36194,-0.82261 0.26324,-0.39485 0.59228,-0.65808 0.36194,-0.29614 0.8555,-0.29614 0.39485,0 0.72389,0.19743 0.32905,0.19742 0.7568,0.42775 0.46066,0.19743 1.11874,0.39485 0.65808,0.19743 1.74392,0.19743 0.8226,0 1.44778,-0.19743 0.65808,-0.19742 0.65808,-0.88841 0,-0.62518 -0.52647,-0.98712 -0.52646,-0.39485 -1.34906,-0.72389 -0.7897,-0.32905 -1.74392,-0.69099 -0.92132,-0.39485 -1.74392,-1.02003 -0.7897,-0.62518 -1.31616,-1.5794 -0.52647,-0.98712 -0.52647,-2.53361 0,-1.67811 0.65808,-2.82976 0.69099,-1.18454 1.74392,-1.90843 1.08584,-0.7239 2.4349,-1.02003 1.34907,-0.32904 2.69814,-0.32904 z" />
      <path
         id="path8421"
         style="letter-spacing:-1.3125366px;word-spacing:0.38665909px;fill:#000000;fill-opacity:1"
         d="m 130.76768,-190.65184 q 0.95422,0 1.6452,-0.26323 0.7239,-0.26323 1.25036,-0.59227 0.52647,-0.32904 0.88841,-0.59228 0.36195,-0.26323 0.65808,-0.26323 0.7568,0 0.7568,0.98712 0,0.23033 -0.0987,0.65809 -0.0987,0.39485 -0.26324,0.8555 -0.16452,0.42776 -0.36194,0.82261 -0.16452,0.39485 -0.32904,0.59227 -0.16452,0.16452 -0.59228,0.52647 -0.39485,0.36194 -1.08583,0.72389 -0.69099,0.36194 -1.6123,0.62517 -0.92132,0.29614 -2.04006,0.29614 -1.25036,0 -2.59942,-0.36194 -1.31617,-0.39485 -2.402,-1.31617 -1.08584,-0.95422 -1.80973,-2.53361 -0.69099,-1.61231 -0.69099,-4.01431 0,-0.8555 0.0987,-1.94134 0.13161,-1.11874 0.49356,-2.27038 0.36194,-1.18455 0.95422,-2.30329 0.62517,-1.15165 1.6452,-2.04006 1.02003,-0.88841 2.43491,-1.41487 1.44778,-0.55937 3.42202,-0.55937 1.61231,0 2.76395,0.39485 1.18455,0.36194 1.94134,1.02002 0.7568,0.62518 1.11874,1.48069 0.39485,0.85551 0.39485,1.84263 0,1.77682 -1.11874,2.63233 -1.11874,0.8226 -3.15879,0.8226 -0.49356,0 -0.69099,-0.0658 -0.16452,-0.0987 -0.16452,-0.39485 0,-0.7897 -0.0329,-1.41487 -0.0329,-0.62518 -0.19743,-1.05294 -0.13162,-0.42775 -0.42775,-0.65808 -0.29614,-0.23033 -0.85551,-0.23033 -1.02003,0 -1.6452,0.65809 -0.59228,0.65808 -0.92132,1.6123 -0.29614,0.92131 -0.39485,1.90844 -0.0658,0.98712 -0.0658,1.6452 0,2.33619 0.72389,3.25751 0.7568,0.92131 2.3691,0.92131 z" />
      <path
         id="path8423"
         style="letter-spacing:-1.3125366px;word-spacing:0.38665909px;fill:#000000;fill-opacity:1"
         d="m 136.8853,-190.65184 q 0,-2.96137 2.66524,-4.63948 2.66523,-1.67811 7.86408,-1.80972 0.0329,-0.36195 0.0329,-0.59228 0.0329,-0.26323 0.0329,-0.62517 0,-1.05294 -0.39485,-1.67811 -0.39485,-0.62518 -1.64521,-0.62518 -0.69098,0 -1.11874,0.19742 -0.42775,0.19743 -0.69098,0.55937 -0.26324,0.32904 -0.42776,0.82261 -0.16452,0.49356 -0.29613,1.08583 -0.0658,0.29614 -0.29614,0.39485 -0.23033,0.0658 -0.72389,0.0658 -3.35622,0 -3.35622,-2.53362 0,-1.02003 0.46066,-1.94134 0.49356,-0.92132 1.41487,-1.5794 0.95422,-0.69098 2.3691,-1.08583 1.41488,-0.39485 3.29041,-0.39485 3.65236,0 5.29756,1.51359 1.64521,1.51359 1.64521,4.27753 0,0.36195 -0.0987,1.31617 -0.0658,0.92131 -0.19743,1.97424 -0.0987,1.02003 -0.19742,1.94134 -0.0658,0.92132 -0.0658,1.28327 0,0.8226 0.29614,1.18454 0.29613,0.32904 0.65808,0.46066 0.39485,0.13162 0.69098,0.19743 0.29614,0.0658 0.29614,0.32904 0,0.72389 -0.19742,1.48068 -0.19743,0.7568 -0.65809,1.38197 -0.42775,0.62518 -1.21745,1.02003 -0.75679,0.39485 -1.87553,0.39485 -1.5794,0 -2.3691,-0.75679 -0.7897,-0.7568 -1.05293,-2.10587 -0.7897,1.15165 -2.07296,2.00715 -1.25036,0.85551 -3.29041,0.85551 -0.98712,0 -1.87554,-0.23033 -0.8555,-0.23033 -1.51358,-0.75679 -0.62518,-0.52647 -1.02003,-1.34907 -0.36195,-0.85551 -0.36195,-2.04006 z m 10.23318,-3.75106 q -0.8555,0 -1.67811,0.13161 -0.8226,0.13162 -1.48068,0.42776 -0.62518,0.26323 -1.02003,0.72389 -0.39485,0.46065 -0.39485,1.11874 0,0.75679 0.46066,1.05293 0.49356,0.29613 1.05293,0.29613 0.52647,0 1.05293,-0.23032 0.52647,-0.23033 0.92132,-0.69099 0.42775,-0.49356 0.72389,-1.18455 0.29613,-0.69099 0.36194,-1.6452 z" />
      <path
         id="path8425"
         style="letter-spacing:-1.3125366px;word-spacing:0.38665909px;fill:#000000;fill-opacity:1"
         d="m 166.45327,-205.03093 q 3.09299,0 4.63948,1.90844 1.5794,1.90843 1.5794,6.02145 0,2.56652 -0.59228,4.57367 -0.59227,2.00715 -1.6452,3.42203 -1.05293,1.38197 -2.46781,2.10586 -1.41488,0.72389 -3.06008,0.72389 -1.74392,0 -2.73104,-0.75679 -0.98713,-0.7568 -1.5465,-2.13877 -0.0987,1.18455 -0.16452,1.80973 -0.0658,0.62517 -0.0987,0.98712 -0.0329,0.39485 -0.0658,0.69099 0,0.29613 -0.0658,0.78969 -0.0329,0.49357 -0.0987,1.34907 -0.0658,0.85551 -0.19742,2.3691 -0.0329,0.39485 -0.16452,0.52647 -0.13162,0.13161 -0.55937,0.13161 l -1.18455,0 q -1.02003,0 -1.67811,-0.23033 -0.62518,-0.19742 -1.02003,-0.59227 -0.36194,-0.39485 -0.52646,-0.98712 -0.13162,-0.55937 -0.13162,-1.31617 0,-0.32904 0.0987,-1.77682 0.0987,-1.44778 0.23033,-3.45493 0.16452,-2.04006 0.32904,-4.37625 0.19743,-2.33619 0.36195,-4.44206 0.16452,-2.13876 0.26323,-3.78397 0.13162,-1.6452 0.19742,-2.27038 0.0329,-0.72389 0.16452,-0.85551 0.0987,-0.0987 0.52647,-0.0987 l 1.28326,0 q 1.77682,0 2.56652,0.75679 0.8226,0.72389 0.8226,1.74392 0.7568,-1.51359 1.94135,-2.17167 1.21745,-0.65808 2.99427,-0.65808 z m -2.402,4.37624 q -1.67811,0 -2.46781,1.44778 -0.7897,1.44779 -0.7897,3.9485 0,0.85551 0.0987,1.67811 0.13161,0.8226 0.42775,1.48068 0.29614,0.65809 0.7897,1.05294 0.52646,0.39484 1.31616,0.39484 1.41488,0 2.3691,-1.38197 0.95422,-1.38197 0.95422,-4.34334 0,-0.8226 -0.13162,-1.5794 -0.0987,-0.7897 -0.39485,-1.38197 -0.29613,-0.59228 -0.8226,-0.95422 -0.52647,-0.36195 -1.34907,-0.36195 z" />
      <path
         id="path8427"
         style="letter-spacing:-1.3125366px;word-spacing:0.38665909px;fill:#000000;fill-opacity:1"
         d="m 181.47197,-186.27559 q -1.44778,0 -2.89556,-0.36194 -1.41488,-0.36195 -2.56652,-1.25036 -1.11874,-0.88841 -1.84263,-2.3691 -0.72389,-1.48068 -0.72389,-3.71816 0,-0.8226 0.13161,-1.97425 0.13162,-1.15164 0.49357,-2.36909 0.39485,-1.21746 1.05293,-2.402 0.69098,-1.21746 1.77682,-2.17168 1.08584,-0.95422 2.63233,-1.54649 1.54649,-0.59227 3.68526,-0.59227 1.71101,0 2.89556,0.39485 1.18455,0.39485 1.90844,1.08583 0.72389,0.65808 1.05293,1.5465 0.32904,0.88841 0.32904,1.90843 0,1.51359 -0.62518,2.56652 -0.59227,1.05294 -1.57939,1.77683 -0.95422,0.69098 -2.13877,1.08583 -1.18455,0.39485 -2.33619,0.62518 -1.15165,0.19743 -2.13877,0.26323 -0.95422,0.0329 -1.48068,0.0329 0,0.62518 0.16452,1.25035 0.19742,0.59228 0.55937,1.05294 0.36194,0.46065 0.95422,0.75679 0.59227,0.29614 1.44778,0.29614 0.8555,0 1.31616,-0.26324 0.49356,-0.29613 0.7897,-0.62517 0.29614,-0.36195 0.49356,-0.62518 0.23033,-0.29614 0.59228,-0.29614 0.16452,0 0.55937,0.0987 0.42775,0.0658 0.8555,0.32904 0.42776,0.26324 0.7568,0.7239 0.32904,0.46065 0.32904,1.18454 0,0.95422 -0.59228,1.64521 -0.59227,0.69099 -1.54649,1.11874 -0.92131,0.42775 -2.07296,0.62518 -1.15164,0.19742 -2.23748,0.19742 z m 0.62518,-14.3791 q -0.72389,0 -1.25036,0.42776 -0.49356,0.39485 -0.8555,1.02002 -0.32904,0.62518 -0.52647,1.38198 -0.16452,0.75679 -0.26323,1.44778 2.04005,-0.0329 3.29041,-0.69099 1.28326,-0.65808 1.28326,-1.87553 0,-0.65808 -0.42775,-1.18455 -0.39485,-0.52647 -1.25036,-0.52647 z" />
      <path
         id="path8429"
         style="letter-spacing:-1.3125366px;word-spacing:0.38665909px;fill:#000000;fill-opacity:1"
         d="m 192.86866,-192.46156 q 1.38197,0 1.97425,0.69098 0.59227,0.65809 0.59227,1.87554 0,0.52646 -0.13161,1.15164 -0.13162,0.62518 -0.49357,1.18455 -0.32904,0.52647 -0.98712,0.92132 -0.62518,0.36194 -1.64521,0.36194 -1.48068,0 -2.00715,-0.75679 -0.52646,-0.7897 -0.52646,-1.94135 0,-0.65808 0.16452,-1.28326 0.16452,-0.62517 0.52646,-1.11874 0.36195,-0.49356 0.98713,-0.78969 0.62518,-0.29614 1.54649,-0.29614 z m 0.72389,-2.30329 q -0.8226,0 -1.34907,-0.19742 -0.52646,-0.19743 -0.8226,-0.59228 -0.29614,-0.42775 -0.42775,-1.02003 -0.0987,-0.62517 -0.0987,-1.41487 0,-0.29614 0,-0.62518 0.0329,-0.36195 0.0658,-0.88841 0.0658,-0.52647 0.0987,-1.31617 0.0658,-0.7897 0.16453,-2.00715 0.0987,-1.25035 0.23032,-2.99427 0.13162,-1.74392 0.29614,-4.17882 0.0329,-0.72389 0.16452,-0.85551 0.0987,-0.0987 0.52647,-0.0987 l 1.94134,0 q 1.80973,0 2.56652,0.72389 0.7897,0.69098 0.7897,1.6452 0,0.59228 -0.13162,1.5794 -0.0987,0.95422 -0.29613,2.13877 -0.19743,1.18455 -0.46066,2.50071 -0.23033,1.28326 -0.49356,2.56652 -0.23033,1.25036 -0.46066,2.402 -0.23033,1.15165 -0.39485,1.97425 -0.0658,0.39485 -0.23033,0.52646 -0.13162,0.13162 -0.49356,0.13162 l -1.18455,0 z" />
    </g>
    <g
       id="text8347-1"
       style="font-style:normal;font-weight:normal;font-size:18.42393684px;line-height:125%;font-family:Sans;letter-spacing:5.53999996px;word-spacing:0px;fill:#000000;fill-opacity:1;stroke:#000000;stroke-width:1px;stroke-linecap:butt;stroke-linejoin:round;stroke-opacity:1">
      <path
         id="path8396"
         d="m 77.509051,-160.77425 q -1.09752,0.50378 -2.401949,0.88161 -1.295433,0.36884 -2.509902,0.36884 -1.565315,0 -2.869744,-0.43181 -1.304429,-0.43181 -2.222027,-1.29543 -0.926595,-0.87262 -1.430374,-2.17705 -0.50378,-1.31342 -0.50378,-3.06766 0,-3.21159 1.871181,-5.06478 1.880177,-1.86218 5.154744,-1.86218 1.1425,0 2.329981,0.27887 1.196476,0.26989 2.572874,0.9266 l 0,2.11407 -0.16193,0 q -0.278878,-0.2159 -0.809645,-0.56675 -0.530768,-0.35085 -1.043544,-0.58474 -0.620728,-0.27888 -1.412381,-0.4588 -0.782658,-0.18892 -1.781221,-0.18892 -2.249016,0 -3.562441,1.44837 -1.304429,1.43937 -1.304429,3.90429 0,2.59986 1.367402,4.04823 1.367401,1.43937 3.72437,1.43937 0.863622,0 1.718248,-0.17093 0.863622,-0.17092 1.511338,-0.44081 l 0,-3.28356 -3.589429,0 0,-1.56531 5.352658,0 0,5.74848 z" />
      <path
         id="path8398"
         d="m 96.246275,-165.16433 q 0,1.45736 -0.323858,2.54589 -0.314862,1.07952 -1.043543,1.79921 -0.692697,0.6837 -1.619291,0.99856 -0.926595,0.31486 -2.159056,0.31486 -1.259448,0 -2.195039,-0.33285 -0.93559,-0.33285 -1.574311,-0.98057 -0.728681,-0.73768 -1.052539,-1.78122 -0.314862,-1.04354 -0.314862,-2.56388 l 0,-8.01549 1.78122,0 0,8.10545 q 0,1.08853 0.143937,1.71825 0.152933,0.62972 0.50378,1.1425 0.395826,0.58474 1.070531,0.88161 0.683701,0.29687 1.637283,0.29687 0.962579,0 1.637284,-0.28787 0.674705,-0.29687 1.079527,-0.89061 0.350847,-0.51278 0.494784,-1.16949 0.152933,-0.66571 0.152933,-1.64628 l 0,-8.15043 1.78122,0 0,8.01549 z" />
      <path
         id="path8400"
         d="m 109.91871,-159.78468 -5.28968,0 0,-1.3674 1.75423,0 0,-10.66034 -1.75423,0 0,-1.3674 5.28968,0 0,1.3674 -1.75423,0 0,10.66034 1.75423,0 0,1.3674 z" />
      <path
         id="path8402"
         d="m 128.0622,-171.59651 -4.78591,0 0,11.81183 -1.78122,0 0,-11.81183 -4.7859,0 0,-1.58331 11.35303,0 0,1.58331 z" />
      <path
         id="path8404"
         d="m 145.98078,-159.78468 -1.89817,0 -1.31342,-3.73337 -5.79347,0 -1.31342,3.73337 -1.80821,0 4.87587,-13.39514 2.37496,0 4.87586,13.39514 z m -3.76035,-5.2627 -2.34797,-6.57612 -2.35697,6.57612 4.70494,0 z" />
      <path
         id="path8406"
         d="m 164.63704,-159.78468 -2.31199,0 -4.48004,-5.32567 -2.5099,0 0,5.32567 -1.78122,0 0,-13.39514 3.75136,0 q 1.21447,0 2.02411,0.16193 0.80965,0.15293 1.45736,0.55775 0.72869,0.4588 1.13351,1.1605 0.41382,0.69269 0.41382,1.76322 0,1.44837 -0.72868,2.42894 -0.72869,0.97158 -2.00613,1.46636 l 5.0378,5.85644 z m -4.16518,-9.62579 q 0,-0.57575 -0.20691,-1.01656 -0.19791,-0.4498 -0.66571,-0.75566 -0.38683,-0.26089 -0.91759,-0.35985 -0.53077,-0.10795 -1.25046,-0.10795 l -2.09608,0 0,5.05579 1.79921,0 q 0.84563,0 1.47536,-0.14394 0.62972,-0.15293 1.07053,-0.55776 0.40482,-0.37783 0.59374,-0.86362 0.19791,-0.49478 0.19791,-1.25045 z" />
    </g>
    <g
       id="text8347-1-8"
       style="font-style:normal;font-weight:normal;font-size:18.42393684px;line-height:125%;font-family:Sans;letter-spacing:5.53999996px;word-spacing:0px;fill:#000000;fill-opacity:1;stroke:#000000;stroke-width:1px;stroke-linecap:butt;stroke-linejoin:round;stroke-opacity:1">
      <path
         id="path8389"
         d="m 102.99253,-229.09058 -4.785901,0 0,11.81183 -1.78122,0 0,-11.81183 -4.785906,0 0,-1.58331 11.353027,0 0,1.58331 z" />
      <path
         id="path8391"
         d="m 120.59625,-217.27875 -1.78122,0 0,-6.55813 -6.68407,0 0,6.55813 -1.78122,0 0,-13.39514 1.78122,0 0,5.25371 6.68407,0 0,-5.25371 1.78122,0 0,13.39514 z" />
      <path
         id="path8393"
         d="m 138.56882,-217.27875 -8.82514,0 0,-13.39514 8.82514,0 0,1.58331 -7.04392,0 0,3.6704 7.04392,0 0,1.5833 -7.04392,0 0,4.97483 7.04392,0 0,1.5833 z" />
    </g>
  </g>
  <circle
     style="opacity:1;fill:#ffffff;fill-opacity:0.08960571;stroke:none;stroke-width:20;stroke-linecap:round;stroke-linejoin:round;stroke-miterlimit:4;stroke-dasharray:none;stroke-dashoffset:0;stroke-opacity:1;filter:url(#filter8691)"
     id="path8573"
     cx="284.375"
     cy="182.29167"
     r="161.45833" />
  <g
     id="layer1"
     transform="translate(0,-752.36216)" />
  <path
     id="rect8300-2"
     d="m 473.0039,45.83301 a 196.875,196.875 0 0 1 29.9453,104.16601 196.875,196.875 0 0 1 -30.0976,104.16797 l 273.8476,0 0,-208.33398 -273.6953,0 z"
     style="opacity:1;fill:#583e2c;fill-opacity:1;stroke:#fff8e0;stroke-width:2.04999995;stroke-linecap:round;stroke-linejoin:round;stroke-miterlimit:4;stroke-dasharray:none;stroke-dashoffset:0;stroke-opacity:1;filter:url(#filter8504)" />
  <path
     transform="matrix(0,-0.96792485,0.99529694,0,775.67638,918.37609)"
     id="rect8300-2-8"
     d="m 896.87532,-299.27151 a 196.875,196.875 0 0 1 -104.16601,29.9453 196.875,196.875 0 0 1 -104.16797,-30.0976 l 0,273.847602 208.33398,0 0,-273.695302 z"
     style="opacity:0.053;fill:#583e2c;fill-opacity:1;stroke:none;stroke-width:2.04999995;stroke-linecap:round;stroke-linejoin:round;stroke-miterlimit:4;stroke-dasharray:none;stroke-dashoffset:0;stroke-opacity:1;filter:url(#filter8981)" />
  <rect
     y="46.620071"
     x="564.94885"
     height="206.97604"
     width="5.1559868"
     id="rect8516"
     style="opacity:1;fill:#cdb491;fill-opacity:1;stroke:none;stroke-width:5;stroke-linecap:round;stroke-linejoin:round;stroke-miterlimit:4;stroke-dasharray:none;stroke-dashoffset:0;stroke-opacity:1" />
  <g
     style="filter:url(#filter8444)"
     id="g8360">
    <path
       id="string1"
       d="m -9.375,57.458333 c 214.42587,0 420.27836,0 620.83333,0"
       style="fill:none;fill-rule:evenodd;stroke:#b6b6b6;stroke-width:3;stroke-linecap:butt;stroke-linejoin:miter;stroke-miterlimit:4;stroke-dasharray:none;stroke-opacity:1;fill-opacity:1" />
    <rect
       y="34.541664"
       x="-17.708334"
       height="35.416668"
       width="639.58331"
       id="string1box"
       style="opacity:1;fill:#ffffff;fill-opacity:0;stroke:none;stroke-width:3;stroke-linecap:round;stroke-linejoin:round;stroke-miterlimit:4;stroke-dasharray:none;stroke-dashoffset:0;stroke-opacity:1" />
  </g>
  <g
     style="filter:url(#filter8432)"
     id="g8364">
    <path
       style="fill:none;fill-rule:evenodd;stroke:#b6b6b6;stroke-width:2.5;stroke-linecap:butt;stroke-linejoin:miter;stroke-miterlimit:4;stroke-dasharray:none;stroke-opacity:1"
       d="m -9.375,96 c 214.42587,0 420.27836,0 620.83333,0"
       id="string2" />
    <rect
       style="opacity:1;fill:#ffffff;fill-opacity:0;stroke:none;stroke-width:3;stroke-linecap:round;stroke-linejoin:round;stroke-miterlimit:4;stroke-dasharray:none;stroke-dashoffset:0;stroke-opacity:1"
       id="string2box"
       width="639.58331"
       height="35.416668"
       x="-17.708334"
       y="73.083336" />
  </g>
  <g
     style="filter:url(#filter8420)"
     id="g8368">
    <path
       id="string3"
       d="m -9.375,131.41666 c 214.42587,0 420.27836,0 620.83333,0"
       style="fill:none;fill-rule:evenodd;stroke:#b6b6b6;stroke-width:2;stroke-linecap:butt;stroke-linejoin:miter;stroke-miterlimit:4;stroke-dasharray:none;stroke-opacity:1" />
    <rect
       y="108.49999"
       x="-17.708334"
       height="35.416668"
       width="639.58331"
       id="string3box"
       style="opacity:1;fill:#ffffff;fill-opacity:0;stroke:none;stroke-width:3;stroke-linecap:round;stroke-linejoin:round;stroke-miterlimit:4;stroke-dasharray:none;stroke-dashoffset:0;stroke-opacity:1" />
  </g>
  <g
     style="filter:url(#filter8408)"
     id="g8372">
    <path
       style="fill:none;fill-rule:evenodd;stroke:#b6b6b6;stroke-width:1.75;stroke-linecap:butt;stroke-linejoin:miter;stroke-miterlimit:4;stroke-dasharray:none;stroke-opacity:1"
       d="m -9.375,166.83333 c 214.42587,0 420.27836,0 620.83333,0"
       id="string4" />
    <rect
       style="opacity:1;fill:#ffffff;fill-opacity:0;stroke:none;stroke-width:3;stroke-linecap:round;stroke-linejoin:round;stroke-miterlimit:4;stroke-dasharray:none;stroke-dashoffset:0;stroke-opacity:1"
       id="string4box"
       width="639.58331"
       height="35.416668"
       x="-17.708334"
       y="143.91666" />
  </g>
  <g
     style="filter:url(#filter8396)"
     id="g8376">
    <path
       id="string5"
       d="m -9.375,203.29166 c 214.42587,0 420.27836,0 620.83333,0"
       style="fill:none;fill-rule:evenodd;stroke:#b6b6b6;stroke-width:1.5;stroke-linecap:butt;stroke-linejoin:miter;stroke-miterlimit:4;stroke-dasharray:none;stroke-opacity:1" />
    <rect
       y="180.37498"
       x="-17.708334"
       height="35.416668"
       width="639.58331"
       id="string5box"
       style="opacity:1;fill:#ffffff;fill-opacity:0;stroke:none;stroke-width:3;stroke-linecap:round;stroke-linejoin:round;stroke-miterlimit:4;stroke-dasharray:none;stroke-dashoffset:0;stroke-opacity:1" />
  </g>
  <g
     style="filter:url(#filter8384)"
     id="g8380">
    <path
       style="fill:none;fill-rule:evenodd;stroke:#b6b6b6;stroke-width:1;stroke-linecap:butt;stroke-linejoin:miter;stroke-miterlimit:4;stroke-dasharray:none;stroke-opacity:1"
       d="m -9.375,240.79166 c 214.42587,0 420.27836,0 620.83333,0"
       id="string6" />
    <rect
       style="opacity:1;fill:#ffffff;fill-opacity:0;stroke:none;stroke-width:3;stroke-linecap:round;stroke-linejoin:round;stroke-miterlimit:4;stroke-dasharray:none;stroke-dashoffset:0;stroke-opacity:1"
       id="string6box"
       width="639.58331"
       height="35.416668"
       x="-17.708334"
       y="217.87498" />
  </g>
  <rect
     style="opacity:1;fill:#000000;fill-opacity:0.22499999;stroke:none;stroke-width:5;stroke-linecap:round;stroke-linejoin:round;stroke-miterlimit:4;stroke-dasharray:none;stroke-dashoffset:0;stroke-opacity:1;filter:url(#filter8920)"
     id="rect8686"
     width="5.1559868"
     height="206.97604"
     x="561.13635"
     y="46.620071" />
</svg>
