<?xml version="1.0" encoding="utf-8"?>
<!-- Generator: Adobe Illustrator 16.0.0, SVG Export Plug-In . SVG Version: 6.00 Build 0)  -->
<!DOCTYPE svg PUBLIC "-//W3C//DTD SVG 1.1//EN" "http://www.w3.org/Graphics/SVG/1.1/DTD/svg11.dtd">
<svg version="1.1" id="Layer_1" xmlns="http://www.w3.org/2000/svg" xmlns:xlink="http://www.w3.org/1999/xlink" x="0px" y="0px"
	 width="360px" height="640px" viewBox="0 0 360 640" enable-background="new 0 0 360 640" xml:space="preserve">
<g display="none">
	<defs>
		<rect id="XMLID_1_" x="-0.927" y="-0.34" width="360.927" height="639.339"/>
	</defs>
	<use xlink:href="#XMLID_1_"  display="inline" overflow="visible" fill="#FFC73A"/>
	<clipPath id="XMLID_3_" display="inline">
		<use xlink:href="#XMLID_1_"  overflow="visible"/>
	</clipPath>
</g>
<polygon display="none" points="-0.927,640 359.848,640 360,544.627 299.704,541.161 186.141,545.414 69.795,532.311 -1,536.778 "/>
<path fill="#DFA56C" d="M263.158,251.179c0,0-9.505,6.047-6.189,12.954c3.313,6.908,10.584-4.364,10.584-4.364L263.158,251.179z"/>
<g>
	<path fill="#EAB175" d="M251.203,313.339c-14.737,0-30.027-19.506-47.469-41.749c-6.841-8.726-13.304-16.967-19.152-23.098
		c-7.954-8.336-10.866-8.498-10.985-8.5l-0.847-14.265c11.976-0.741,23.849,13.6,42.23,37.043
		c7.875,10.045,16.017,20.432,23.361,27.621c9.581,9.381,13.129,8.669,13.498,8.559c0.254-0.077,6.213-2.184,8.442-30.079
		l11.521,0.274c-2.102,26.241-5.101,40.252-15.842,43.488C254.382,313.11,252.795,313.339,251.203,313.339z"/>
</g>
<g>
	<path fill="#EAB175" d="M131.812,227.328c0,0-2.256,0.83-3.679,2.373c-1.422,1.542,2.967,29.423,2.967,29.423l5.458,37.729
		l-0.238,8.187l4.864,14.356l21.949-4.153l6.16-91.391l-9.144-4.383l-21.921,3.467l-0.213,1.013L131.812,227.328z"/>
	<g>
		<path fill="#3E3664" d="M163.958,222.429l0.42-2.134l2.685,0.711l0.128,1.068l5.564,0.84l0.453-0.517l2.458,0.68v2.393
			c0,0-5.72-2.791-5.917-2.817C169.553,222.63,163.958,222.429,163.958,222.429z"/>
		<path fill="#3E3664" d="M128.483,227.907l1.296,21.699l6.156,82.903l-3.304,3.306v6.167l48.506-6.138l-0.656-5.808l-2.607-2.015
			l-2.176-104.04l-11.482-3.073c0,0-3.835,23.504-8.9,24.386c-5.066,0.88-16.248-19.433-16.248-22.737L128.483,227.907z"/>
		<polygon fill="#3E3664" points="138.549,221.87 139.143,223.231 128.671,228.392 128.072,226.748 131.551,225.176 
			131.887,225.924 136.376,223.792 136.113,222.67 		"/>
	</g>
	<g>
		<path fill="#771612" d="M134.76,334.553l-2.803-0.121l-0.388,12.181l29.468-1.663l21.267-2.771l0.714-3.363
			c0,0-0.937-0.552-0.93-0.841c0.007-0.287,1.201-4.611,1.201-4.611l-7.036-0.056L134.76,334.553z"/>
		<path fill="#CECFD1" d="M181.138,335.844c0,0,3.109,0.322,3.16,1.5c0.058,1.305-2.947,2.14-2.947,2.14
			S180.352,338.278,181.138,335.844z"/>
		<path fill="#CECFD1" d="M132.771,342.516c0,0-3.066-0.315-3.117-1.479c-0.055-1.285,2.908-2.111,2.908-2.111
			S133.548,340.115,132.771,342.516z"/>
		<path fill="#CECFD1" d="M139.932,340.704c-0.266,0.966-1.267,1.532-2.234,1.265c-0.964-0.268-2.213-1.048-1.947-2.016
			c0.267-0.963,1.949-1.75,2.915-1.483C139.632,338.737,140.199,339.737,139.932,340.704z"/>
		<circle fill="#CECFD1" cx="152.621" cy="339.608" r="1.814"/>
		<path fill="#CECFD1" d="M176.521,338.507c-0.253,0.911-1.953,1.662-2.867,1.408c-0.912-0.253-1.448-1.198-1.196-2.109
			c0.253-0.916,1.197-1.45,2.111-1.197C175.481,336.86,176.774,337.593,176.521,338.507z"/>
		<path fill="#CECFD1" d="M146.708,340.255c-0.214,0.772-1.014,1.228-1.788,1.012c-0.774-0.215-1.874-0.933-1.661-1.707
			c0.214-0.774,1.661-1.307,2.436-1.095C146.469,338.681,146.922,339.48,146.708,340.255z"/>
		<circle fill="#CECFD1" cx="159.948" cy="339.132" r="1.602"/>
		<path fill="#CECFD1" d="M168.721,339.237c-0.228,0.827-1.583,1.377-2.409,1.149c-0.826-0.229-1.311-1.084-1.083-1.912
			c0.228-0.825,1.083-1.31,1.911-1.081C167.966,337.621,168.951,338.411,168.721,339.237z"/>
	</g>
	<g>
		<polygon fill="#FFFFFF" points="169.49,253.25 158.776,266.011 172.459,280.633 170.467,282.417 156.992,268.323 142.584,284.754 
			140.545,282.934 154.165,265.772 143.949,255.424 148.174,252.659 156.425,262.842 166.717,251.108 		"/>
	</g>
</g>
<path fill="#800007" d="M133.21,345.675l-4.038,12.755l-1.189,3.368c0,0-29.482,69.218-36.548,170.182l8.393-1.228
	c0,0,13.319-123.453,46.484-163.375l24.883-2.406c0,0,44.51,68.944,60.275,158.411l8.187-0.615c0,0-14.618-102.338-56.461-169.893
	l-1.465-11.703L133.21,345.675z"/>
<path fill="#EAB175" d="M214.749,430.286l-2.631-1.8l0.831,2.77l-3.46-2.077l0.276,5.122l-2.077-0.969l2.629,6.644l2.078,4.153
	l0.83-1.801l1.385,1.522l1.521-0.969l2.63,1.523l0.277-3.322l0.277-2.906c0,0-1.938-4.706-2.214-5.121
	C216.825,432.641,214.749,430.286,214.749,430.286z"/>
<path fill="#DFD4C3" d="M129.66,247.217l-0.359-5.721c-0.028-0.003-0.057-0.006-0.086-0.008L129.66,247.217z"/>
<path fill="#DFD4C3" d="M128.072,226.748l0.022,0.276c0.007,0,0.015,0.002,0.022,0.002L128.072,226.748z"/>
<g>
	<g>
		<g>
			<g>
				<g>
					<g>
						<g>
							<path fill="#808080" d="M314.612,177.445c0.982-1.016,1.966-0.703,2.183,0.693l0.882,5.658
								c0.216,1.398-0.753,2.399-2.156,2.225l-5.686-0.705c-1.401-0.175-1.745-1.147-0.761-2.162L314.612,177.445z"/>
						</g>
						<g>
							
								<rect x="316.063" y="182.08" transform="matrix(-0.6961 0.718 -0.718 -0.6961 672.3147 87.3049)" fill="#808080" width="3.23" height="7.752"/>
						</g>
					</g>
					<g>
						<g>
							<path fill="#808080" d="M342.22,204.212c0.985-1.015,0.642-1.988-0.761-2.163l-5.684-0.705
								c-1.401-0.173-2.372,0.828-2.155,2.225l0.88,5.66c0.218,1.396,1.201,1.708,2.186,0.693L342.22,204.212z"/>
						</g>
						<g>
							
								<rect x="332.003" y="197.533" transform="matrix(-0.6964 0.7177 -0.7177 -0.6964 710.4886 102.2349)" fill="#808080" width="3.231" height="7.754"/>
						</g>
					</g>
				</g>
				<g>
					<g>
						<g>
							<path fill="#808080" d="M302.98,189.44c0.984-1.014,1.967-0.701,2.184,0.695l0.882,5.659
								c0.217,1.398-0.754,2.398-2.157,2.224l-5.684-0.705c-1.403-0.174-1.745-1.146-0.761-2.162L302.98,189.44z"/>
						</g>
						<g>
							
								<rect x="304.431" y="194.077" transform="matrix(-0.6961 0.7179 -0.7179 -0.6961 661.2087 116.045)" fill="#808080" width="3.231" height="7.752"/>
						</g>
					</g>
					<g>
						<g>
							<path fill="#808080" d="M330.59,216.209c0.984-1.016,0.64-1.987-0.762-2.162l-5.684-0.705
								c-1.402-0.173-2.372,0.827-2.156,2.225l0.88,5.658c0.218,1.398,1.199,1.71,2.187,0.693L330.59,216.209z"/>
						</g>
						<g>
							
								<rect x="320.372" y="209.532" transform="matrix(-0.6958 0.7183 -0.7183 -0.6958 699.2983 130.611)" fill="#808080" width="3.23" height="7.752"/>
						</g>
					</g>
				</g>
				<g>
					<g>
						<g>
							<path fill="#4D4D4D" d="M123.102,405.689c-0.369,0.379-0.935,0.434-1.262,0.117l-1.901-1.839
								c-0.326-0.316-0.291-0.883,0.08-1.265l2.11-2.182c0.37-0.382,0.935-0.436,1.262-0.12l1.901,1.838
								c0.327,0.316,0.292,0.884-0.079,1.269L123.102,405.689z"/>
						</g>
					</g>
					<g>
						<g>
							<path fill="#333333" d="M126.448,403.81c-0.347,0.36-0.876,0.408-1.185,0.113l-3.549-3.437
								c-0.306-0.296-0.274-0.83,0.073-1.188l0,0c0.347-0.359,0.878-0.408,1.187-0.112l3.548,3.434
								C126.828,402.919,126.797,403.45,126.448,403.81L126.448,403.81z"/>
						</g>
					</g>
					<g>
						<g>
							<path fill="#808080" d="M123.379,407.257c-0.37,0.383-0.934,0.438-1.26,0.118l-3.76-3.637
								c-0.328-0.316-0.293-0.881,0.078-1.264l0.406-0.422c0.369-0.38,0.934-0.436,1.261-0.119l3.761,3.637
								c0.326,0.317,0.292,0.883-0.08,1.268L123.379,407.257z"/>
						</g>
					</g>
				</g>
				<g>
					<path fill="#A92B27" d="M195.265,378.278c0,0,2.94-6.622,10.828-10.298c7.884-3.671,22.647-8.501,18.41-18.989
						c-4.237-10.49-16.101-0.377-20.523-2.611c-4.425-2.229-4.271-6.723-2.479-10.165c1.79-3.442,6.145-9.537,4.346-11.078
						c-1.624-1.386-3.67-3.221-4.058-3.57l-0.712-0.64c0,0-10.148-7.577-9.755-15.837c0.395-8.263,6.997-13.802,10.889-18.878
						c3.893-5.076,0.566-10.772-2.481-11.875s-14.469-2.911-23.569,16.667c-9.103,19.579-13.091,31.973-21.917,35.768
						c-8.824,3.794-30.998,9.259-40.051,18.595c-9.055,9.34-20.495,26.389,10.078,56.028c30.572,29.639,47.312,17.622,56.312,8.339
						C189.579,400.452,192.589,388.803,195.265,378.278z"/>
				</g>
				<g>
					<path fill="#E5E5E5" d="M126.326,399.273c-12.791-12.398-19.184-23.654-19.001-33.449c0.154-8.25,4.885-14.168,8.989-18.399
						c6.219-6.415,19.862-11.112,29.824-14.54c3.699-1.272,6.889-2.373,9.274-3.397c8.299-3.568,12.55-13.065,18.982-27.44
						c1.386-3.098,2.819-6.298,4.444-9.796c8.638-18.577,18.76-15.543,19.885-15.135c0.117,0.043,0.403,0.176,0.787,0.551
						c1.096,1.062,2.584,3.842,0.355,6.748c-0.774,1.012-1.688,2.07-2.657,3.188c-3.777,4.376-8.48,9.82-8.839,17.344
						c-0.306,6.354,4.125,12.042,7.892,15.696c1.364,1.32,2.485,2.218,2.905,2.543l0.042,0.036l0.603,0.541
						c0.156,0.142,1.578,1.418,3.01,2.666l0.396,0.347l-0.198,0.488c-0.565,1.392-1.87,3.62-2.572,4.82
						c-0.582,0.991-1.13,1.929-1.567,2.768c-2.391,4.592-1.931,9.332,1.203,12.366c0.726,0.704,1.588,1.31,2.566,1.803
						c2.632,1.326,5.75,0.376,9.052-0.63c4.075-1.244,7.09-1.997,8.778-0.361c0.49,0.478,0.923,1.172,1.286,2.068
						c0.822,2.036,1.175,4.532-2.441,7.606c-2.976,2.531-7.45,4.492-11.396,6.219c-1.099,0.483-2.128,0.935-3.081,1.378
						c-8.792,4.098-12.143,11.465-12.28,11.777c-0.066,0.15-0.123,0.31-0.164,0.471c-2.545,10.008-5.432,21.35-13.941,30.126
						c-4.092,4.222-9.845,9.12-18.094,9.532C150.562,417.705,139.111,411.668,126.326,399.273z M198.191,278.494
						c-1.078-0.38-9.982-2.896-18.013,14.379c-1.623,3.488-3.052,6.685-4.437,9.777c-6.575,14.694-10.919,24.399-19.748,28.193
						c-2.434,1.048-5.649,2.153-9.373,3.437c-9.824,3.379-23.274,8.011-29.249,14.177c-3.915,4.037-8.427,9.665-8.571,17.393
						c-0.174,9.37,6.067,20.259,18.552,32.364c12.477,12.096,23.56,17.992,32.937,17.519c7.732-0.389,13.205-5.059,17.106-9.083
						c8.238-8.495,11.07-19.636,13.569-29.465c0.063-0.24,0.146-0.48,0.245-0.708c0.15-0.331,3.721-8.185,13.007-12.513
						c0.972-0.453,2.007-0.909,3.105-1.39c3.863-1.691,8.231-3.607,11.04-5.997c3.038-2.582,2.668-4.344,2.027-5.926
						c-0.283-0.703-0.601-1.229-0.942-1.56c-1.105-1.071-3.85-0.348-7.32,0.712c-3.592,1.096-6.985,2.132-10.147,0.536
						c-1.112-0.561-2.096-1.255-2.929-2.061c-3.62-3.51-4.189-8.918-1.484-14.11c0.452-0.873,1.011-1.824,1.601-2.833
						c0.605-1.033,1.67-2.85,2.271-4.15c-1.291-1.132-2.478-2.196-2.618-2.322l-0.584-0.524c-0.455-0.354-1.613-1.285-3.006-2.637
						c-3.987-3.863-8.671-9.921-8.341-16.825c0.385-8.035,5.272-13.692,9.199-18.241c0.952-1.102,1.854-2.145,2.603-3.121
						c1.595-2.081,0.559-4.042-0.213-4.79C198.325,278.575,198.221,278.512,198.191,278.494z"/>
				</g>
				<g>
					<g>
						<path fill="#292624" d="M175.049,368.764c-1.136,1.171-3.008,1.2-4.182,0.063l-15.489-15.017
							c-1.171-1.138-1.199-3.008-0.063-4.181l4.936-5.094c1.137-1.173,3.009-1.202,4.181-0.062l15.49,15.017
							c1.174,1.136,1.201,3.009,0.064,4.181L175.049,368.764z"/>
					</g>
					<g>
						<g>
							<path fill="#505957" d="M176.645,364.994c-0.598,0.614-1.578,0.628-2.194,0.036c-0.616-0.601-0.629-1.581-0.034-2.196
								c0.597-0.616,1.58-0.633,2.196-0.034C177.226,363.394,177.24,364.375,176.645,364.994z"/>
						</g>
						<g>
							<path fill="#505957" d="M161.259,350.077c-0.596,0.616-1.579,0.63-2.193,0.034c-0.615-0.596-0.63-1.58-0.035-2.192
								c0.598-0.618,1.58-0.632,2.195-0.038C161.841,348.48,161.857,349.463,161.259,350.077z"/>
						</g>
					</g>
				</g>
				<g>
					<g>
						<path fill="#292624" d="M160.132,384.146c-1.135,1.174-3.008,1.202-4.18,0.065l-15.49-15.018
							c-1.172-1.135-1.2-3.009-0.064-4.18l4.938-5.095c1.136-1.17,3.008-1.198,4.179-0.063l15.49,15.019
							c1.173,1.138,1.202,3.01,0.065,4.179L160.132,384.146z"/>
					</g>
					<g>
						<g>
							<path fill="#505957" d="M161.728,380.378c-0.595,0.612-1.58,0.631-2.194,0.035c-0.614-0.597-0.629-1.578-0.034-2.195
								c0.596-0.615,1.58-0.629,2.194-0.035C162.31,378.78,162.326,379.762,161.728,380.378z"/>
						</g>
						<g>
							<circle fill="#505957" cx="145.231" cy="364.381" r="1.552"/>
						</g>
					</g>
				</g>
				<g>
					<path fill="#666666" d="M142.068,400.94c-0.567,0.583-1.503,0.601-2.089,0.031l-15.774-15.291
						c-0.585-0.57-0.6-1.507-0.032-2.091l9.289-9.582c0.569-0.587,1.504-0.6,2.09-0.033l15.773,15.295
						c0.586,0.568,0.601,1.501,0.034,2.088L142.068,400.94z"/>
				</g>
				<g>
					<path fill="#333333" d="M141.158,402.799c-0.568,0.588-1.504,0.602-2.089,0.032l-16.695-16.184
						c-0.585-0.567-0.6-1.505-0.031-2.09l1.371-1.414c0.568-0.587,1.503-0.6,2.089-0.032l16.695,16.187
						c0.584,0.565,0.6,1.5,0.031,2.088L141.158,402.799z"/>
				</g>
				<g>
					<path fill="#292624" d="M325.729,206.661c3.688-4.933,14.698-13.907,14.698-13.907c1.135-0.924,1.021-2.269-0.253-2.988
						l-4.619-2.605c-1.272-0.72-2.936-2.332-3.694-3.583l-2.748-4.534c-0.759-1.25-2.104-1.324-2.992-0.162
						c0,0-8.631,11.283-13.447,15.121c-4.818,3.836-11.821,7.161-11.821,7.161c-1.32,0.627-1.642,2.063-0.71,3.192
						c0,0,0.578,0.701,0.63,4.043c0.053,3.345-4.485,6.68-4.485,6.68c-1.18,0.866-1.285,2.408-0.235,3.425l5.703,5.529
						c1.051,1.018,2.588,0.865,3.419-0.34c0,0,3.191-4.639,6.536-4.692c3.345-0.052,4.061,0.505,4.061,0.505
						c1.156,0.896,2.582,0.533,3.169-0.807C318.939,218.699,322.045,211.596,325.729,206.661z"/>
				</g>
				<g>
					<g>
						<circle fill="#B2B2B2" cx="322.771" cy="191.16" r="2.093"/>
					</g>
					<g>
						<circle fill="#B2B2B2" cx="328.257" cy="196.481" r="2.092"/>
					</g>
				</g>
				<g>
					<g>
						<circle fill="#B2B2B2" cx="310.211" cy="201.992" r="2.093"/>
					</g>
					<g>
						<circle fill="#B2B2B2" cx="317.821" cy="209.369" r="2.093"/>
					</g>
				</g>
				<g>
					<polygon fill="#AD916F" points="191.074,344.153 179.416,332.85 297.609,214.336 305.873,222.347 					"/>
				</g>
				<path fill="#FFFFFF" d="M113.064,372.648c-0.678-10.183,4.586-16.132,6.352-18.346c4.869-6.106,17.072-12.619,27.205-14.911
					c10.725-2.428,23.593-7.104,29.683-24.042c2.928-8.128,8.16-16.394,12.095-22.644c0.57-1.934,1.31-3.808,1.98-5.504
					c1.264-3.203,3.175-8.054,1.986-9.002c-0.038-0.029-0.073-0.058-0.122-0.086c-0.09-0.062-0.136-0.078-0.136-0.078
					c-0.6-0.072-4.577-0.322-9.937,8.093c-3.989,6.271-8.661,16.377-11.633,24.622c-6.09,16.939-15.435,18.953-28.16,23.312
					c-9.83,3.367-23.856,9.536-28.727,15.639c-1.766,2.217-7.03,8.168-6.353,18.352c0.843,12.775,11.985,26.262,24.55,36.278
					l0.004,0.005c0.682,0.542,1.384,1.092,2.106,1.631c0.304,0.227,0.607,0.436,0.909,0.654
					C124.025,397.079,113.844,384.46,113.064,372.648"/>
				<polygon fill="#F1F1F1" points="298.715,215.391 298.298,214.986 134.493,379.011 134.91,379.415 				"/>
				<polygon fill="#F1F1F1" points="299.752,216.357 299.335,215.953 136.763,381.365 137.18,381.768 				"/>
				
					<rect x="219.855" y="184.742" transform="matrix(0.7184 0.6957 -0.6957 0.7184 271.2043 -68.4523)" fill="#F1F1F1" width="0.58" height="231.975"/>
				<polygon fill="#F1F1F1" points="302.549,219.108 302.132,218.704 141.49,386.326 141.907,386.729 				"/>
				<polygon fill="#F1F1F1" points="303.879,220.398 303.461,219.993 143.848,388.46 144.265,388.866 				"/>
				<polygon fill="#F1F1F1" points="305.188,221.629 304.77,221.225 146.161,391.085 146.579,391.486 				"/>
			</g>
		</g>
	</g>
	<g>
		<g>
			<path fill="#292624" d="M128.689,386.593c-0.57,0.587-1.331,0.77-1.701,0.41l0,0c-0.37-0.359-0.211-1.127,0.358-1.711
				l6.103-6.297c0.568-0.585,1.329-0.768,1.7-0.407l0,0c0.371,0.358,0.211,1.124-0.358,1.71L128.689,386.593z"/>
		</g>
		<g>
			<path fill="#292624" d="M131.11,388.939c-0.57,0.587-1.331,0.771-1.701,0.412l0,0c-0.37-0.359-0.209-1.126,0.358-1.712
				l6.103-6.297c0.568-0.585,1.329-0.769,1.7-0.409l0,0c0.37,0.357,0.211,1.125-0.358,1.711L131.11,388.939z"/>
		</g>
		<g>
			<path fill="#292624" d="M133.53,391.285c-0.569,0.59-1.329,0.771-1.701,0.413l0,0c-0.371-0.359-0.21-1.127,0.359-1.716
				l6.103-6.292c0.568-0.587,1.329-0.768,1.699-0.411l0,0c0.372,0.36,0.211,1.127-0.357,1.714L133.53,391.285z"/>
		</g>
		<g>
			<path fill="#292624" d="M135.952,393.634c-0.57,0.587-1.33,0.768-1.702,0.411l0,0c-0.371-0.36-0.211-1.125,0.358-1.715
				l6.103-6.293c0.568-0.587,1.329-0.771,1.7-0.411l0,0c0.37,0.361,0.211,1.126-0.357,1.713L135.952,393.634z"/>
		</g>
		<g>
			<path fill="#292624" d="M138.27,396.084c-0.567,0.587-1.33,0.77-1.699,0.41l0,0c-0.371-0.356-0.211-1.126,0.357-1.711
				l6.103-6.297c0.568-0.585,1.329-0.768,1.7-0.408l0,0c0.371,0.359,0.211,1.125-0.357,1.712L138.27,396.084z"/>
		</g>
		<g>
			<path fill="#292624" d="M140.589,398.536c-0.568,0.586-1.329,0.768-1.7,0.408l0,0c-0.372-0.357-0.211-1.122,0.358-1.712
				l6.103-6.294c0.568-0.587,1.329-0.771,1.701-0.413l0,0c0.37,0.364,0.21,1.129-0.358,1.717L140.589,398.536z"/>
		</g>
	</g>
	<path fill="#B4B3B3" d="M170.372,386.135c-0.628,1.636-2.466,2.456-4.103,1.83c-1.634-0.628-2.454-2.467-1.829-4.102
		c0.63-1.637,2.469-2.457,4.101-1.83C170.173,382.674,170.999,384.502,170.372,386.135"/>
	<path fill="#292624" d="M169.42,385.771c-0.425,1.108-1.673,1.665-2.786,1.242c-1.11-0.427-1.666-1.676-1.241-2.787
		c0.426-1.108,1.674-1.666,2.785-1.241C169.286,383.423,169.846,384.66,169.42,385.771"/>
	<path fill="none" stroke="#9A9999" stroke-width="0.179" stroke-miterlimit="10" d="M169.755,385.898
		c-0.497,1.296-1.955,1.944-3.249,1.449c-1.295-0.496-1.944-1.954-1.446-3.25c0.495-1.294,1.951-1.944,3.246-1.447
		C169.599,383.158,170.251,384.605,169.755,385.898z"/>
	
		<rect x="163.142" y="384.445" transform="matrix(-0.358 0.9337 -0.9337 -0.358 587.0955 366.4362)" fill="#9A9999" width="8.851" height="1.229"/>
	<path fill="#B4B3B3" d="M160.076,395.896c-1.715,0.35-3.396-0.76-3.744-2.476c-0.35-1.72,0.758-3.397,2.476-3.746
		c1.715-0.35,3.396,0.76,3.746,2.477C162.889,393.869,161.793,395.546,160.076,395.896"/>
	<path fill="#292624" d="M159.873,394.897c-1.166,0.239-2.305-0.516-2.542-1.683c-0.239-1.165,0.516-2.305,1.681-2.54
		c1.165-0.237,2.304,0.513,2.542,1.68C161.784,393.521,161.038,394.657,159.873,394.897"/>
	<path fill="none" stroke="#9A9999" stroke-width="0.179" stroke-miterlimit="10" d="M159.946,395.249
		c-1.359,0.277-2.69-0.603-2.969-1.962c-0.275-1.357,0.604-2.688,1.963-2.965c1.36-0.279,2.69,0.603,2.967,1.962
		C162.173,393.643,161.304,394.972,159.946,395.249z"/>
	
		<rect x="155.049" y="392.339" transform="matrix(-0.9798 0.1999 -0.1999 -0.9798 394.3012 746.0863)" fill="#9A9999" width="8.855" height="1.23"/>
	<path fill="#B4B3B3" d="M175.803,379.894c-1.714,0.351-3.395-0.76-3.745-2.477c-0.35-1.718,0.762-3.396,2.478-3.746
		c1.715-0.351,3.397,0.76,3.746,2.476C178.617,377.867,177.519,379.545,175.803,379.894"/>
	<path fill="#292624" d="M175.601,378.893c-1.166,0.239-2.307-0.516-2.545-1.681c-0.236-1.164,0.52-2.307,1.684-2.542
		c1.164-0.237,2.304,0.518,2.541,1.681C177.509,377.517,176.766,378.654,175.601,378.893"/>
	<path fill="none" stroke="#9A9999" stroke-width="0.179" stroke-miterlimit="10" d="M175.673,379.245
		c-1.359,0.276-2.692-0.602-2.968-1.96c-0.277-1.358,0.602-2.688,1.961-2.968c1.358-0.276,2.691,0.603,2.969,1.963
		C177.897,377.64,177.031,378.971,175.673,379.245z"/>
	
		<rect x="170.776" y="376.334" transform="matrix(-0.9798 0.1998 -0.1998 -0.9798 422.2022 711.2848)" fill="#9A9999" width="8.855" height="1.232"/>
</g>
<g>
	<path fill="#221F1F" d="M259.183,276.688c0.225,0,14.597-1.49,14.001-8.342c-0.596-6.851-3.203-5.287-3.203-5.287l-11.914,9.607
		L259.183,276.688z"/>
	<path fill="#DFA56C" d="M258.534,265.59c1.76,6.694,3.976,9.228,6.671,7.24c2.697-1.988-0.468-10.326-3.59-11.035
		C258.492,261.084,257.821,262.892,258.534,265.59z"/>
	<path fill="#DFA56C" d="M263.892,263.781c1.763,6.695,3.976,9.229,6.674,7.24c2.698-1.987-0.467-10.325-3.59-11.036
		C263.852,259.276,263.182,261.083,263.892,263.781z"/>
	<path fill="#DFA56C" d="M267.735,261.013c1.763,6.694,3.976,9.229,6.674,7.242c2.698-1.99-0.466-10.327-3.59-11.036
		C267.694,256.507,267.025,258.315,267.735,261.013z"/>
	<path fill="#DFA56C" d="M261.895,260.278c-1.029-6.845,0.004-10.047,3.27-9.287c3.263,0.761,3.65,9.669,1.062,11.556
		C263.637,264.434,262.309,263.038,261.895,260.278z"/>
	<path fill="#DFA56C" d="M253.974,270.413c3.052,5.012,5.521,6.535,7.354,4.266c1.836-2.271-2.79-8.28-5.611-8.099
		S252.744,268.393,253.974,270.413z"/>
</g>
<g>
	<g>
		<path fill="#EAB175" d="M155.916,358.329c-0.771-0.442-19.205-8.945-37.409-24.627c-25.562-22.021-37.957-42.014-36.626-60.628
			c1.346-18.859,18.239-33.822,46.603-45.167l1.247,14.772c-22.85,9.139-34.239,18.186-35.163,31.121
			c-2.033,28.461,47.426,63.476,66.655,74.567L155.916,358.329z"/>
	</g>
	<g>
		<g>
			<path fill="#EAB175" d="M158.385,350.695l2.693,1.462c0,0,12.442-9.449,17.365-0.649c0,0,4.206-2.231,4.936,5.811
				c0,0-1.322,3.462-1.771,4c0,0,3.064,3.989-2.67,6.642c0,0-1.695,7.978-15.426-2.3c-13.732-10.274-10.794-11.609-10.794-11.609
				L158.385,350.695z"/>
		</g>
		<g>
			<path fill="#C0B7A9" d="M178.491,351.87c-6.371,3.474-8.897,1.85-9.001,1.777l0.317-0.476c0.023,0.017,2.395,1.476,8.412-1.805
				L178.491,351.87z"/>
		</g>
		<g>
			<polygon fill="#221F1F" points="158.51,362.925 165.193,348.247 156.771,342.355 148.115,361.389 156.802,366.392 			"/>
		</g>
	</g>
</g>
<g>
	<path fill="#39393B" d="M208.362,122.113c0,0,18.885-2.067,16.123,9.014c-2.763,11.083-12.53,92.848-49.743,81.743
		c-5.37-1.601-16.653,15.002-16.653,15.002C135.904,211.874,208.362,122.113,208.362,122.113z"/>
	<path fill="#353234" d="M97.997,193.917c0,0,20.742,25.029,49.587,21.955c37.133-3.956,13.204-35.41,13.204-35.41L97.997,193.917z"
		/>
	<g>
		<path fill="#EAB175" d="M205.243,131.491c0,0-15.456,64.018-16.485,68.809c-1.029,4.791-2.389,15.425-30.715,21.81
			c-7.777,1.753-15.667,2.438-14.062-3.246c4.562-16.17,16.446-52.377,16.446-52.377l30.304-38.139L205.243,131.491z"/>
		<g>
			<path fill="#970505" d="M143.711,213.918c0,0,13.604,6.712,20.827,7.097l-2.45,8.948c0,0-10.899,0.152-21.609-6.961
				L143.711,213.918z"/>
			<path fill="#CECFD1" d="M162.867,223.561c0,0,3.239,1.663,2.798,2.965c-0.49,1.439-4.106,1.077-4.106,1.077
				S160.983,225.872,162.867,223.561z"/>
			<path fill="#CECFD1" d="M142.131,220.907c0,0-2.981-2.093-2.364-3.322c0.683-1.359,4.214-0.502,4.214-0.502
				S144.315,218.876,142.131,220.907z"/>
			<path fill="#CECFD1" d="M158.818,222.797c0,0,1.394,1.424,0.926,2.716c-0.517,1.43-2.34,1.285-2.34,1.285
				C154.989,225.438,156.523,222.651,158.818,222.797z"/>
			<path fill="#CECFD1" d="M147.61,218.566c0,0,1.392,1.423,0.925,2.715c-0.516,1.43-2.34,1.286-2.34,1.286
				C143.781,221.207,145.315,218.42,147.61,218.566z"/>
			
				<ellipse transform="matrix(0.9352 0.3542 -0.3542 0.9352 88.8305 -39.2688)" fill="#CECFD1" cx="151.691" cy="223.035" rx="1.857" ry="1.974"/>
		</g>
		<path fill="#39393B" d="M205.53,127.831c0,0-18.442,42.474-16.117,66.594c0.264,2.729-1.495,7.941-0.732,8.149
			c5.982,1.626,27.557-69.431,27.557-69.431L205.53,127.831z"/>
		<path fill="#EF9854" d="M195.261,164.261c0,0-4.906,24.564-8.358,27.369c-3.451,2.807-6.245-7.699-6.245-7.699
			s-3.971,1.041-4.637-2.221c-0.667-3.259,2.184-4.094,2.184-4.094l8.903-19.595l2.342-4.327l6.867,4.454L195.261,164.261z"/>
		<g>
			<path fill="#FFFFFF" d="M174.297,198.155c0.486-0.081-0.242,1.99-2.498,2.763c-2.254,0.773-3.096-3.654-3.096-3.654
				L174.297,198.155z"/>
			<path fill="#FFFFFF" d="M169.609,197.118c0.475-0.126-0.047,2.006-2.214,2.993c-2.168,0.987-3.443-3.335-3.443-3.335
				L169.609,197.118z"/>
			<g>
				<path fill="#897D78" d="M181.286,200.523c0.34-0.016,0.653-0.232,0.774-0.572c0.156-0.444-0.079-0.929-0.527-1.083
					c-0.454-0.158-11.188-3.842-19.266-3.209c-0.473,0.038-0.827,0.446-0.791,0.916c0.038,0.469,0.48,0.814,0.922,0.781
					c7.717-0.601,18.459,3.083,18.566,3.12C181.072,200.513,181.178,200.527,181.286,200.523z"/>
			</g>
		</g>
		<g>
			<path fill="#141414" d="M170.764,118.963c-1.752,3.424-29.347,60.879-47.328,38.076l-5.555,7.912l7.557,5.625l-8.169-4.753
				l-20.71,29.49c5.979,3.401,21.104,27.641,66.931-4.379c38.17-26.67,46.625-68.825,46.625-68.825
				C186.047,100.5,172.514,115.538,170.764,118.963z"/>
		</g>
	</g>
</g>
<g>
	<path fill="#540207" d="M240.829,520.121c-0.581,0.084-11.274,2.062-11.274,2.062l0.231,4.714l11.066-1.438L240.829,520.121z"/>
	<g>
		<path d="M270.169,546.825c0.093,0.271-15.222,0.864-15.222,0.864s-2.084-0.195-2.371-0.195c-0.29,0-15.106,0.808-15.106,0.808
			s0.23-6.557-6.874-6.366l-1.259-15.092l12.552-1.964l0.473,13.342c0,0,22.771,2.456,31.206,1.328
			c0.16-0.021,0.319-0.04,0.476-0.059C271.713,539.973,268.35,541.565,270.169,546.825z"/>
		<path fill="#FFFFFF" d="M230.597,541.964l-0.001-0.028c7.104-0.19,6.874,6.366,6.874,6.366s14.816-0.808,15.106-0.808
			c0.287,0,2.371,0.195,2.371,0.195s15.314-0.593,15.222-0.864c-1.819-5.26,1.544-6.853,3.874-7.334
			c8.007-0.922,9.206,2.745,9.206,2.745l0.688,6.235c-7.438,3.206-28.936,3.324-28.936,3.324l-1.278-0.311l-23.622,1.368
			c0,0-0.612-8.59-0.47-9.6C229.774,542.247,230.597,541.964,230.597,541.964z"/>
		<polygon fill="#FFFFFF" points="267.802,539.226 264.327,543.673 262.62,543.545 265.621,539.209 		"/>
		<polygon fill="#FFFFFF" points="261.197,539.348 258.096,542.96 256.402,542.915 259.526,538.602 		"/>
		<polygon fill="#FFFFFF" points="254.559,538.654 252.751,542.41 250.805,542.319 251.995,538.281 		"/>
		<polygon fill="#FFFFFF" points="248.632,538.351 246.452,542.654 244.477,542.361 246.737,538.047 		"/>
		
			<ellipse transform="matrix(-0.9899 0.1417 -0.1417 -0.9899 544.9977 1028.5157)" fill="#FFFFFF" cx="235.887" cy="533.658" rx="3.846" ry="3.765"/>
	</g>
</g>
<g>
	<path fill="#540207" d="M89.185,526.398c0.585,0.044,11.388,1.295,11.388,1.295l0.087,4.72l-11.139-0.688L89.185,526.398z"/>
	<g>
		<path d="M61.715,555.02c-0.076,0.276,15.244-0.164,15.244-0.164s2.067-0.335,2.355-0.355c0.286-0.018,15.124-0.213,15.124-0.213
			s-0.671-6.525,6.431-6.814l0.237-15.145l-12.656-1.112l0.429,13.344c0,0-22.553,3.988-31.045,3.432
			c-0.163-0.009-0.322-0.02-0.479-0.025C59.711,548.288,63.175,549.648,61.715,555.02z"/>
		<path fill="#FFFFFF" d="M100.867,547.501l0-0.028c-7.102,0.289-6.431,6.814-6.431,6.814S79.6,554.482,79.313,554.5
			c-0.288,0.021-2.355,0.355-2.355,0.355s-15.32,0.44-15.244,0.164c1.46-5.371-2.004-6.731-4.361-7.054
			c-8.051-0.383-9,3.357-9,3.357l-0.265,6.268c7.638,2.695,29.094,1.364,29.094,1.364l1.254-0.396l23.66-0.227
			c0,0,0.034-8.613-0.179-9.609C101.708,547.728,100.867,547.501,100.867,547.501z"/>
		<polygon fill="#FFFFFF" points="63.561,547.277 67.33,551.48 69.022,551.238 65.738,547.114 		"/>
		<polygon fill="#FFFFFF" points="70.159,546.955 73.5,550.351 75.185,550.19 71.775,546.096 		"/>
		<polygon fill="#FFFFFF" points="76.737,545.816 78.793,549.441 80.729,549.218 79.27,545.271 		"/>
		<polygon fill="#FFFFFF" points="82.629,545.114 85.096,549.259 87.047,548.833 84.5,544.682 		"/>
		
			<ellipse transform="matrix(0.9972 0.0747 -0.0747 0.9972 40.5965 -5.5937)" fill="#FFFFFF" cx="95.03" cy="539.571" rx="3.848" ry="3.765"/>
	</g>
</g>
</svg>
